<svg xmlns="http://www.w3.org/2000/svg" xmlns:xlink="http://www.w3.org/1999/xlink" width="500" zoomAndPan="magnify" viewBox="0 0 375 374.999991" height="500" preserveAspectRatio="xMidYMid meet" version="1.0"><defs><clipPath id="cef0026c83"><path d="M 153 0.15625 L 222 0.15625 L 222 36 L 153 36 Z M 153 0.15625 " clip-rule="nonzero"/></clipPath><clipPath id="dba1d7d3b4"><path d="M 93 0.15625 L 282 0.15625 L 282 189 L 93 189 Z M 93 0.15625 " clip-rule="nonzero"/></clipPath></defs><rect x="-37.5" width="450" fill="#ffffff" y="-37.499999" height="449.999989" fill-opacity="1"/><rect x="-37.5" width="450" fill="#ffffff" y="-37.499999" height="449.999989" fill-opacity="1"/><g clip-path="url(#cef0026c83)"><path fill="#dadae5" d="M 221.039062 35.65625 C 220.746094 35.65625 220.554688 35.558594 220.359375 35.367188 L 187.5 2.492188 L 154.734375 35.367188 C 154.347656 35.753906 153.769531 35.753906 153.382812 35.367188 C 152.996094 34.980469 152.996094 34.398438 153.382812 34.011719 L 186.824219 0.558594 C 187.210938 0.171875 187.789062 0.171875 188.175781 0.558594 L 221.617188 34.011719 C 222.003906 34.398438 222.003906 34.980469 221.617188 35.367188 C 221.519531 35.558594 221.230469 35.65625 221.039062 35.65625 Z M 221.039062 35.65625 " fill-opacity="1" fill-rule="nonzero"/></g><path fill="#dadae5" d="M 55.671875 133.992188 C 55.378906 133.992188 55.1875 133.894531 54.992188 133.703125 C 54.605469 133.316406 54.605469 132.734375 54.992188 132.347656 L 132.214844 55.09375 C 132.601562 54.703125 133.183594 54.703125 133.570312 55.09375 C 133.957031 55.480469 133.957031 56.058594 133.570312 56.445312 L 56.347656 133.703125 C 56.152344 133.894531 55.960938 133.992188 55.671875 133.992188 Z M 55.671875 133.992188 " fill-opacity="1" fill-rule="nonzero"/><path fill="#dadae5" d="M 132.894531 320.511719 C 132.601562 320.511719 132.410156 320.414062 132.214844 320.21875 L 54.992188 242.964844 C 54.605469 242.578125 54.605469 241.996094 54.992188 241.609375 C 55.378906 241.222656 55.960938 241.222656 56.347656 241.609375 L 133.570312 318.867188 C 133.957031 319.253906 133.957031 319.832031 133.570312 320.21875 C 133.375 320.414062 133.183594 320.511719 132.894531 320.511719 Z M 132.894531 320.511719 " fill-opacity="1" fill-rule="nonzero"/><path fill="#dadae5" d="M 242.105469 320.511719 C 241.816406 320.511719 241.625 320.414062 241.429688 320.21875 C 241.042969 319.832031 241.042969 319.253906 241.429688 318.867188 L 318.652344 241.609375 C 319.039062 241.222656 319.621094 241.222656 320.007812 241.609375 C 320.394531 241.996094 320.394531 242.578125 320.007812 242.964844 L 242.878906 320.21875 C 242.6875 320.414062 242.398438 320.511719 242.105469 320.511719 Z M 242.105469 320.511719 " fill-opacity="1" fill-rule="nonzero"/><path fill="#dadae5" d="M 319.328125 133.992188 C 319.039062 133.992188 318.847656 133.894531 318.652344 133.703125 L 241.429688 56.445312 C 241.042969 56.058594 241.042969 55.480469 241.429688 55.09375 C 241.816406 54.703125 242.398438 54.703125 242.785156 55.09375 L 320.007812 132.347656 C 320.394531 132.734375 320.394531 133.316406 320.007812 133.703125 C 319.8125 133.894531 319.621094 133.992188 319.328125 133.992188 Z M 319.328125 133.992188 " fill-opacity="1" fill-rule="nonzero"/><path fill="#dadae5" d="M 340.496094 222.175781 C 340.207031 222.175781 340.011719 222.078125 339.820312 221.886719 C 339.433594 221.5 339.433594 220.917969 339.820312 220.53125 L 372.582031 187.753906 L 339.820312 154.878906 C 339.433594 154.492188 339.433594 153.910156 339.820312 153.523438 C 340.207031 153.136719 340.785156 153.136719 341.171875 153.523438 L 374.613281 186.980469 C 375 187.367188 375 187.945312 374.613281 188.332031 L 341.171875 221.789062 C 340.980469 222.078125 340.785156 222.175781 340.496094 222.175781 Z M 340.496094 222.175781 " fill-opacity="1" fill-rule="nonzero"/><path fill="#dadae5" d="M 187.5 375.140625 C 187.210938 375.140625 187.015625 375.042969 186.824219 374.851562 L 153.382812 341.394531 C 152.996094 341.007812 152.996094 340.429688 153.382812 340.042969 C 153.769531 339.65625 154.347656 339.65625 154.734375 340.042969 L 187.5 372.820312 L 220.265625 340.042969 C 220.652344 339.65625 221.230469 339.65625 221.617188 340.042969 C 222.003906 340.429688 222.003906 341.007812 221.617188 341.394531 L 188.175781 374.851562 C 187.984375 375.046875 187.789062 375.140625 187.5 375.140625 Z M 187.5 375.140625 " fill-opacity="1" fill-rule="nonzero"/><path fill="#dadae5" d="M 34.503906 222.175781 C 34.214844 222.175781 34.019531 222.078125 33.828125 221.886719 L 0.386719 188.332031 C 0 187.945312 0 187.367188 0.386719 186.980469 L 33.828125 153.523438 C 34.214844 153.136719 34.792969 153.136719 35.179688 153.523438 C 35.566406 153.910156 35.566406 154.492188 35.179688 154.878906 L 2.417969 187.65625 L 35.179688 220.433594 C 35.566406 220.820312 35.566406 221.402344 35.179688 221.789062 C 35.082031 222.078125 34.792969 222.175781 34.503906 222.175781 Z M 34.503906 222.175781 " fill-opacity="1" fill-rule="nonzero"/><path fill="#dadae5" d="M 55.671875 104.113281 C 55.089844 104.113281 54.703125 103.632812 54.703125 103.148438 L 54.703125 55.769531 C 54.703125 55.1875 55.1875 54.800781 55.671875 54.800781 L 103.027344 54.800781 C 103.609375 54.800781 103.996094 55.285156 103.996094 55.769531 C 103.996094 56.347656 103.511719 56.734375 103.027344 56.734375 L 56.636719 56.734375 L 56.636719 103.148438 C 56.636719 103.632812 56.25 104.113281 55.671875 104.113281 Z M 55.671875 104.113281 " fill-opacity="1" fill-rule="nonzero"/><path fill="#dadae5" d="M 103.027344 320.511719 L 55.671875 320.511719 C 55.089844 320.511719 54.703125 320.027344 54.703125 319.542969 L 54.703125 272.164062 C 54.703125 271.585938 55.1875 271.199219 55.671875 271.199219 C 56.25 271.199219 56.636719 271.679688 56.636719 272.164062 L 56.636719 318.578125 L 103.027344 318.578125 C 103.609375 318.578125 103.996094 319.058594 103.996094 319.542969 C 103.996094 320.027344 103.609375 320.511719 103.027344 320.511719 Z M 103.027344 320.511719 " fill-opacity="1" fill-rule="nonzero"/><path fill="#dadae5" d="M 319.328125 320.511719 L 271.972656 320.511719 C 271.390625 320.511719 271.003906 320.027344 271.003906 319.542969 C 271.003906 319.058594 271.488281 318.578125 271.972656 318.578125 L 318.363281 318.578125 L 318.363281 272.164062 C 318.363281 271.585938 318.847656 271.199219 319.328125 271.199219 C 319.910156 271.199219 320.296875 271.679688 320.296875 272.164062 L 320.296875 319.542969 C 320.296875 320.125 319.910156 320.511719 319.328125 320.511719 Z M 319.328125 320.511719 " fill-opacity="1" fill-rule="nonzero"/><path fill="#dadae5" d="M 319.328125 243.253906 C 318.75 243.253906 318.363281 242.769531 318.363281 242.285156 L 318.363281 133.027344 C 318.363281 132.445312 318.847656 132.058594 319.328125 132.058594 C 319.910156 132.058594 320.296875 132.542969 320.296875 133.027344 L 320.296875 242.285156 C 320.296875 242.867188 319.910156 243.253906 319.328125 243.253906 Z M 319.328125 243.253906 " fill-opacity="1" fill-rule="nonzero"/><path fill="#dadae5" d="M 242.105469 320.511719 L 132.894531 320.511719 C 132.3125 320.511719 131.925781 320.027344 131.925781 319.542969 C 131.925781 319.058594 132.410156 318.578125 132.894531 318.578125 L 242.105469 318.578125 C 242.6875 318.578125 243.074219 319.058594 243.074219 319.542969 C 243.074219 320.027344 242.6875 320.511719 242.105469 320.511719 Z M 242.105469 320.511719 " fill-opacity="1" fill-rule="nonzero"/><path fill="#dadae5" d="M 55.671875 243.253906 C 55.089844 243.253906 54.703125 242.769531 54.703125 242.285156 L 54.703125 133.027344 C 54.703125 132.445312 55.1875 132.058594 55.671875 132.058594 C 56.25 132.058594 56.636719 132.542969 56.636719 133.027344 L 56.636719 242.285156 C 56.636719 242.867188 56.25 243.253906 55.671875 243.253906 Z M 55.671875 243.253906 " fill-opacity="1" fill-rule="nonzero"/><path fill="#dadae5" d="M 319.328125 104.113281 C 318.75 104.113281 318.363281 103.632812 318.363281 103.148438 L 318.363281 56.734375 L 271.972656 56.734375 C 271.390625 56.734375 271.003906 56.253906 271.003906 55.769531 C 271.003906 55.1875 271.488281 54.800781 271.972656 54.800781 L 319.328125 54.800781 C 319.910156 54.800781 320.296875 55.285156 320.296875 55.769531 L 320.296875 103.148438 C 320.296875 103.632812 319.910156 104.113281 319.328125 104.113281 Z M 319.328125 104.113281 " fill-opacity="1" fill-rule="nonzero"/><path fill="#dadae5" d="M 242.105469 56.734375 L 132.894531 56.734375 C 132.3125 56.734375 131.925781 56.253906 131.925781 55.769531 C 131.925781 55.1875 132.410156 54.800781 132.894531 54.800781 L 242.105469 54.800781 C 242.6875 54.800781 243.074219 55.285156 243.074219 55.769531 C 243.074219 56.347656 242.6875 56.734375 242.105469 56.734375 Z M 242.105469 56.734375 " fill-opacity="1" fill-rule="nonzero"/><g clip-path="url(#dba1d7d3b4)"><path fill="#dadae5" d="M 187.5 188.625 C 135.695312 188.625 93.558594 146.464844 93.558594 94.640625 C 93.558594 42.8125 135.695312 0.65625 187.5 0.65625 C 239.304688 0.65625 281.441406 42.8125 281.441406 94.640625 C 281.441406 146.464844 239.304688 188.625 187.5 188.625 Z M 187.5 2.589844 C 136.757812 2.589844 95.488281 43.875 95.488281 94.640625 C 95.488281 145.402344 136.757812 186.6875 187.5 186.6875 C 238.242188 186.6875 279.511719 145.402344 279.511719 94.640625 C 279.511719 43.875 238.242188 2.589844 187.5 2.589844 Z M 187.5 2.589844 " fill-opacity="1" fill-rule="nonzero"/></g><path fill="#dadae5" d="M 121.777344 215.792969 C 97.710938 215.792969 73.648438 206.609375 55.378906 188.332031 C 18.75 151.6875 18.75 92.027344 55.378906 55.382812 C 92.011719 18.734375 151.644531 18.734375 188.273438 55.382812 C 224.902344 92.027344 224.902344 151.6875 188.273438 188.332031 C 169.910156 206.703125 145.84375 215.792969 121.777344 215.792969 Z M 121.777344 29.855469 C 98.195312 29.855469 74.613281 38.847656 56.734375 56.734375 C 20.875 92.609375 20.875 151.011719 56.734375 186.882812 C 92.589844 222.753906 150.964844 222.753906 186.824219 186.882812 C 222.679688 151.011719 222.679688 92.609375 186.824219 56.734375 C 168.941406 38.847656 145.359375 29.855469 121.777344 29.855469 Z M 121.777344 29.855469 " fill-opacity="1" fill-rule="nonzero"/><path fill="#dadae5" d="M 94.523438 281.640625 C 42.71875 281.640625 0.578125 239.484375 0.578125 187.65625 C 0.578125 135.828125 42.71875 93.671875 94.523438 93.671875 C 146.328125 93.671875 188.464844 135.828125 188.464844 187.65625 C 188.464844 239.484375 146.328125 281.640625 94.523438 281.640625 Z M 94.523438 95.605469 C 43.78125 95.605469 2.511719 136.894531 2.511719 187.65625 C 2.511719 238.417969 43.78125 279.707031 94.523438 279.707031 C 145.265625 279.707031 186.535156 238.417969 186.535156 187.65625 C 186.535156 136.894531 145.265625 95.605469 94.523438 95.605469 Z M 94.523438 95.605469 " fill-opacity="1" fill-rule="nonzero"/><path fill="#dadae5" d="M 121.777344 347.390625 C 97.710938 347.390625 73.648438 338.207031 55.378906 319.929688 C 18.75 283.285156 18.75 223.625 55.378906 186.980469 C 92.011719 150.332031 151.644531 150.332031 188.273438 186.980469 C 224.902344 223.625 224.902344 283.285156 188.273438 319.929688 C 169.910156 338.207031 145.84375 347.390625 121.777344 347.390625 Z M 121.777344 161.453125 C 98.195312 161.453125 74.613281 170.445312 56.734375 188.332031 C 20.875 224.207031 20.875 282.609375 56.734375 318.480469 C 92.589844 354.351562 150.964844 354.351562 186.824219 318.480469 C 222.679688 282.609375 222.679688 224.207031 186.824219 188.332031 C 168.941406 170.445312 145.359375 161.453125 121.777344 161.453125 Z M 121.777344 161.453125 " fill-opacity="1" fill-rule="nonzero"/><path fill="#dadae5" d="M 187.5 374.65625 C 135.695312 374.65625 93.558594 332.5 93.558594 280.671875 C 93.558594 228.847656 135.695312 186.6875 187.5 186.6875 C 239.304688 186.6875 281.441406 228.847656 281.441406 280.671875 C 281.441406 332.5 239.304688 374.65625 187.5 374.65625 Z M 187.5 188.625 C 136.757812 188.625 95.488281 229.910156 95.488281 280.671875 C 95.488281 331.4375 136.757812 372.722656 187.5 372.722656 C 238.242188 372.722656 279.511719 331.4375 279.511719 280.671875 C 279.511719 229.910156 238.242188 188.625 187.5 188.625 Z M 187.5 188.625 " fill-opacity="1" fill-rule="nonzero"/><path fill="#dadae5" d="M 253.316406 347.390625 C 229.253906 347.390625 205.1875 338.207031 186.921875 319.929688 C 150.289062 283.285156 150.289062 223.625 186.921875 186.980469 C 223.550781 150.332031 283.183594 150.332031 319.8125 186.980469 C 356.441406 223.625 356.441406 283.285156 319.8125 319.929688 C 301.351562 338.207031 277.289062 347.390625 253.316406 347.390625 Z M 253.316406 161.453125 C 229.734375 161.453125 206.152344 170.445312 188.273438 188.332031 C 152.417969 224.207031 152.417969 282.609375 188.273438 318.480469 C 224.128906 354.351562 282.507812 354.351562 318.363281 318.480469 C 354.21875 282.609375 354.21875 224.207031 318.363281 188.332031 C 300.386719 170.445312 276.804688 161.453125 253.316406 161.453125 Z M 253.316406 161.453125 " fill-opacity="1" fill-rule="nonzero"/><path fill="#dadae5" d="M 280.476562 281.640625 C 228.671875 281.640625 186.535156 239.484375 186.535156 187.65625 C 186.535156 135.828125 228.671875 93.671875 280.476562 93.671875 C 332.28125 93.671875 374.421875 135.828125 374.421875 187.65625 C 374.421875 239.484375 332.28125 281.640625 280.476562 281.640625 Z M 280.476562 95.605469 C 229.734375 95.605469 188.464844 136.894531 188.464844 187.65625 C 188.464844 238.417969 229.734375 279.707031 280.476562 279.707031 C 331.21875 279.707031 372.488281 238.417969 372.488281 187.65625 C 372.488281 136.894531 331.21875 95.605469 280.476562 95.605469 Z M 280.476562 95.605469 " fill-opacity="1" fill-rule="nonzero"/><path fill="#dadae5" d="M 253.316406 215.792969 C 229.253906 215.792969 205.1875 206.609375 186.921875 188.332031 C 150.289062 151.6875 150.289062 92.027344 186.921875 55.382812 C 223.550781 18.734375 283.183594 18.734375 319.8125 55.382812 C 356.441406 92.027344 356.441406 151.6875 319.8125 188.332031 C 301.351562 206.703125 277.289062 215.792969 253.316406 215.792969 Z M 253.316406 29.855469 C 229.734375 29.855469 206.152344 38.847656 188.273438 56.734375 C 152.417969 92.609375 152.417969 151.011719 188.273438 186.882812 C 224.128906 222.753906 282.507812 222.753906 318.363281 186.882812 C 354.21875 151.011719 354.21875 92.609375 318.363281 56.734375 C 300.386719 38.847656 276.804688 29.855469 253.316406 29.855469 Z M 253.316406 29.855469 " fill-opacity="1" fill-rule="nonzero"/><path fill="#dadae5" d="M 187.5 320.21875 L 186.339844 320.21875 C 185.953125 320.21875 185.664062 319.929688 185.664062 319.542969 C 185.664062 319.15625 185.953125 318.867188 186.339844 318.867188 L 187.5 318.867188 C 188.851562 318.867188 190.207031 318.867188 191.460938 318.769531 C 191.847656 318.769531 192.140625 319.058594 192.140625 319.445312 C 192.140625 319.832031 191.847656 320.125 191.460938 320.125 C 190.207031 320.21875 188.851562 320.21875 187.5 320.21875 Z M 183.730469 320.125 C 181.992188 320.125 180.25 320.027344 178.511719 319.832031 C 178.125 319.832031 177.835938 319.542969 177.933594 319.15625 C 177.933594 318.769531 178.316406 318.480469 178.609375 318.578125 C 180.347656 318.671875 182.085938 318.769531 183.828125 318.867188 C 184.214844 318.867188 184.503906 319.15625 184.503906 319.542969 C 184.40625 319.832031 184.117188 320.125 183.730469 320.125 Z M 194.167969 320.027344 C 193.78125 320.027344 193.492188 319.738281 193.492188 319.445312 C 193.492188 319.058594 193.78125 318.769531 194.070312 318.769531 C 195.8125 318.671875 197.550781 318.578125 199.195312 318.382812 C 199.582031 318.285156 199.871094 318.578125 199.871094 318.964844 C 199.871094 319.351562 199.679688 319.640625 199.292969 319.640625 C 197.648438 319.832031 195.910156 319.929688 194.167969 320.027344 Z M 175.902344 319.738281 C 174.066406 319.542969 172.324219 319.351562 170.683594 319.15625 C 170.296875 319.15625 170.101562 318.769531 170.101562 318.382812 C 170.101562 317.996094 170.488281 317.804688 170.875 317.804688 C 172.617188 317.996094 174.257812 318.191406 176 318.382812 C 176.386719 318.382812 176.578125 318.769531 176.578125 319.058594 C 176.578125 319.445312 176.289062 319.738281 175.902344 319.738281 Z M 201.902344 319.445312 C 201.609375 319.445312 201.320312 319.15625 201.222656 318.867188 C 201.222656 318.480469 201.417969 318.191406 201.804688 318.191406 C 203.542969 317.996094 205.285156 317.804688 206.925781 317.511719 C 207.3125 317.417969 207.601562 317.707031 207.699219 318.09375 C 207.796875 318.480469 207.507812 318.769531 207.121094 318.867188 C 205.476562 318.964844 203.738281 319.253906 201.902344 319.445312 Z M 168.171875 318.769531 C 166.332031 318.480469 164.59375 318.191406 162.949219 317.898438 C 162.5625 317.804688 162.371094 317.511719 162.46875 317.125 C 162.5625 316.738281 162.855469 316.546875 163.242188 316.644531 C 164.980469 316.933594 166.625 317.222656 168.363281 317.511719 C 168.75 317.609375 168.941406 317.898438 168.941406 318.285156 C 168.75 318.578125 168.460938 318.769531 168.171875 318.769531 Z M 209.632812 318.382812 C 209.34375 318.382812 209.054688 318.191406 208.957031 317.804688 C 208.859375 317.417969 209.148438 317.125 209.4375 317.03125 C 211.179688 316.738281 212.820312 316.449219 214.5625 316.0625 C 214.949219 315.964844 215.238281 316.257812 215.335938 316.546875 C 215.433594 316.933594 215.140625 317.222656 214.851562 317.320312 C 213.113281 317.707031 211.46875 317.996094 209.730469 318.285156 Z M 160.535156 317.417969 L 160.4375 317.417969 C 158.699219 317.03125 157.054688 316.644531 155.316406 316.257812 C 154.929688 316.160156 154.734375 315.773438 154.832031 315.484375 C 154.929688 315.097656 155.21875 314.902344 155.605469 315 C 157.25 315.386719 158.988281 315.773438 160.632812 316.160156 C 161.019531 316.257812 161.210938 316.546875 161.113281 316.933594 C 161.113281 317.222656 160.824219 317.417969 160.535156 317.417969 Z M 217.363281 316.835938 C 217.074219 316.835938 216.785156 316.644531 216.6875 316.351562 C 216.589844 315.964844 216.785156 315.675781 217.171875 315.578125 C 218.8125 315.191406 220.554688 314.804688 222.195312 314.324219 C 222.582031 314.226562 222.875 314.417969 222.96875 314.804688 C 223.066406 315.191406 222.875 315.484375 222.488281 315.578125 C 220.84375 316.0625 219.105469 316.449219 217.363281 316.835938 Z M 152.898438 315.578125 L 152.707031 315.578125 C 151.0625 315.097656 149.324219 314.613281 147.679688 314.128906 C 147.292969 314.03125 147.101562 313.644531 147.292969 313.355469 C 147.390625 312.96875 147.777344 312.871094 148.066406 312.96875 C 149.710938 313.453125 151.351562 313.9375 152.996094 314.417969 C 153.382812 314.515625 153.574219 314.902344 153.480469 315.191406 C 153.480469 315.386719 153.1875 315.578125 152.898438 315.578125 Z M 224.902344 314.804688 C 224.613281 314.804688 224.324219 314.613281 224.324219 314.324219 C 224.226562 313.9375 224.421875 313.644531 224.808594 313.550781 C 226.449219 313.066406 228.09375 312.582031 229.734375 312 C 230.027344 311.90625 230.414062 312.097656 230.605469 312.386719 C 230.703125 312.777344 230.507812 313.066406 230.21875 313.257812 C 228.574219 313.839844 226.933594 314.324219 225.191406 314.804688 Z M 145.457031 313.355469 L 145.265625 313.355469 C 143.621094 312.777344 141.976562 312.195312 140.335938 311.613281 C 140.046875 311.519531 139.851562 311.132812 139.949219 310.746094 C 140.046875 310.453125 140.433594 310.261719 140.816406 310.359375 C 142.460938 310.9375 144.105469 311.519531 145.746094 312.097656 C 146.132812 312.195312 146.230469 312.582031 146.132812 312.96875 C 145.941406 313.164062 145.652344 313.355469 145.457031 313.355469 Z M 232.34375 312.386719 C 232.054688 312.386719 231.863281 312.195312 231.765625 312 C 231.667969 311.710938 231.863281 311.324219 232.152344 311.132812 C 233.796875 310.550781 235.4375 309.972656 236.984375 309.292969 C 237.273438 309.199219 237.660156 309.292969 237.855469 309.679688 C 237.949219 309.972656 237.855469 310.359375 237.46875 310.550781 C 235.824219 311.226562 234.183594 311.808594 232.539062 312.386719 Z M 138.113281 310.648438 L 137.820312 310.648438 C 136.179688 309.972656 134.632812 309.292969 132.988281 308.617188 C 132.699219 308.425781 132.507812 308.039062 132.699219 307.746094 C 132.894531 307.457031 133.28125 307.265625 133.570312 307.457031 C 135.117188 308.132812 136.757812 308.8125 138.304688 309.488281 C 138.59375 309.585938 138.789062 309.972656 138.691406 310.359375 C 138.59375 310.453125 138.304688 310.648438 138.113281 310.648438 Z M 239.59375 309.488281 C 239.304688 309.488281 239.109375 309.292969 239.015625 309.101562 C 238.917969 308.8125 239.015625 308.425781 239.402344 308.230469 C 240.945312 307.554688 242.589844 306.878906 244.136719 306.105469 C 244.425781 305.910156 244.8125 306.105469 245.007812 306.394531 C 245.199219 306.683594 245.007812 307.070312 244.714844 307.265625 C 243.171875 308.039062 241.527344 308.714844 239.980469 309.390625 Z M 130.863281 307.457031 L 130.574219 307.359375 C 129.027344 306.585938 127.382812 305.8125 125.933594 305.039062 C 125.644531 304.847656 125.449219 304.460938 125.644531 304.167969 C 125.835938 303.878906 126.222656 303.6875 126.515625 303.878906 C 128.0625 304.652344 129.605469 305.425781 131.152344 306.199219 C 131.441406 306.394531 131.636719 306.78125 131.441406 307.070312 C 131.347656 307.359375 131.152344 307.457031 130.863281 307.457031 Z M 246.648438 306.199219 C 246.457031 306.199219 246.167969 306.105469 246.070312 305.8125 C 245.875 305.523438 246.070312 305.136719 246.359375 304.945312 C 247.90625 304.167969 249.453125 303.394531 250.902344 302.527344 C 251.191406 302.332031 251.578125 302.429688 251.773438 302.816406 C 251.964844 303.105469 251.867188 303.492188 251.480469 303.6875 C 249.9375 304.554688 248.390625 305.332031 246.84375 306.105469 Z M 123.90625 303.878906 L 123.613281 303.78125 C 122.066406 302.914062 120.523438 302.042969 119.070312 301.171875 C 118.78125 300.980469 118.6875 300.59375 118.878906 300.300781 C 119.070312 300.011719 119.457031 299.914062 119.75 300.109375 C 121.199219 300.980469 122.746094 301.847656 124.195312 302.71875 C 124.484375 302.914062 124.582031 303.300781 124.484375 303.589844 Z M 253.511719 302.527344 L 252.933594 302.234375 C 252.738281 301.945312 252.835938 301.558594 253.125 301.367188 C 254.574219 300.496094 256.121094 299.625 257.570312 298.660156 C 257.859375 298.464844 258.246094 298.5625 258.441406 298.851562 C 258.632812 299.140625 258.539062 299.527344 258.246094 299.722656 C 256.796875 300.6875 255.25 301.558594 253.800781 302.429688 Z M 117.234375 299.914062 L 116.847656 299.820312 C 115.398438 298.851562 113.949219 297.886719 112.5 296.917969 C 112.210938 296.722656 112.113281 296.335938 112.308594 296.046875 C 112.5 295.757812 112.886719 295.660156 113.175781 295.855469 C 114.625 296.820312 116.074219 297.789062 117.527344 298.753906 C 117.816406 298.949219 117.914062 299.335938 117.71875 299.625 Z M 260.082031 298.464844 L 259.503906 298.175781 C 259.308594 297.886719 259.40625 297.5 259.695312 297.304688 C 261.148438 296.335938 262.597656 295.371094 263.949219 294.402344 C 264.238281 294.210938 264.625 294.308594 264.820312 294.597656 C 265.011719 294.886719 264.917969 295.273438 264.625 295.46875 C 263.175781 296.53125 261.824219 297.5 260.277344 298.464844 Z M 110.761719 295.5625 L 110.375 295.46875 C 108.925781 294.402344 107.570312 293.4375 106.21875 292.375 C 105.929688 292.179688 105.929688 291.695312 106.121094 291.503906 C 106.3125 291.214844 106.699219 291.214844 106.992188 291.40625 C 108.34375 292.46875 109.695312 293.535156 111.148438 294.5 C 111.4375 294.695312 111.535156 295.082031 111.339844 295.371094 Z M 266.460938 293.921875 L 265.980469 293.628906 C 265.785156 293.339844 265.785156 292.953125 266.074219 292.761719 C 267.429688 291.695312 268.78125 290.632812 270.136719 289.570312 C 270.425781 289.375 270.8125 289.375 271.003906 289.667969 C 271.199219 289.957031 271.199219 290.34375 270.910156 290.535156 C 269.554688 291.601562 268.203125 292.664062 266.753906 293.726562 Z M 104.476562 290.828125 L 104.089844 290.730469 C 102.738281 289.667969 101.386719 288.503906 100.128906 287.34375 C 99.839844 287.152344 99.839844 286.667969 100.03125 286.476562 C 100.226562 286.183594 100.707031 286.183594 100.902344 286.378906 C 102.160156 287.539062 103.511719 288.601562 104.863281 289.761719 C 105.15625 289.957031 105.15625 290.441406 104.960938 290.632812 Z M 272.550781 289.085938 L 272.066406 288.890625 C 271.875 288.601562 271.875 288.214844 272.164062 288.023438 C 273.519531 286.863281 274.773438 285.796875 276.03125 284.636719 C 276.320312 284.445312 276.707031 284.445312 276.996094 284.636719 C 277.191406 284.929688 277.191406 285.316406 276.996094 285.605469 C 275.742188 286.765625 274.386719 287.925781 273.035156 289.085938 Z M 98.582031 285.703125 L 98.097656 285.507812 C 96.84375 284.347656 95.585938 283.089844 94.328125 281.929688 C 94.039062 281.640625 94.039062 281.253906 94.328125 280.964844 C 94.621094 280.671875 95.007812 280.671875 95.296875 280.964844 C 96.554688 282.222656 97.808594 283.382812 99.066406 284.542969 C 99.355469 284.832031 99.355469 285.21875 99.066406 285.507812 Z M 278.351562 283.863281 L 277.867188 283.671875 C 277.578125 283.382812 277.675781 282.996094 277.867188 282.800781 C 279.125 281.640625 280.378906 280.382812 281.539062 279.125 C 281.828125 278.835938 282.214844 278.835938 282.507812 279.125 C 282.796875 279.417969 282.796875 279.804688 282.507812 280.09375 C 281.25 281.351562 280.089844 282.609375 278.738281 283.769531 Z M 92.976562 280.285156 L 92.492188 280.09375 C 91.238281 278.835938 90.078125 277.578125 88.917969 276.226562 C 88.722656 275.9375 88.722656 275.550781 89.015625 275.257812 C 89.304688 275.066406 89.691406 275.066406 89.980469 275.355469 C 91.140625 276.613281 92.300781 277.871094 93.558594 279.125 C 93.847656 279.417969 93.847656 279.804688 93.558594 280.09375 Z M 283.859375 278.351562 L 283.375 278.160156 C 283.085938 277.871094 283.085938 277.484375 283.375 277.191406 C 284.535156 275.9375 285.695312 274.679688 286.855469 273.324219 C 287.050781 273.035156 287.53125 273.035156 287.726562 273.226562 C 288.015625 273.421875 288.015625 273.90625 287.820312 274.097656 C 286.664062 275.453125 285.503906 276.710938 284.34375 277.964844 Z M 87.757812 274.484375 L 87.273438 274.292969 C 86.113281 272.9375 85.050781 271.585938 83.890625 270.230469 C 83.699219 269.941406 83.699219 269.554688 83.988281 269.359375 C 84.277344 269.167969 84.664062 269.167969 84.859375 269.457031 C 85.921875 270.8125 87.082031 272.164062 88.144531 273.421875 C 88.335938 273.710938 88.335938 274.097656 88.046875 274.292969 Z M 289.078125 272.453125 L 288.691406 272.261719 C 288.402344 272.066406 288.402344 271.585938 288.59375 271.390625 C 289.660156 270.039062 290.816406 268.683594 291.785156 267.332031 C 291.976562 267.039062 292.363281 266.945312 292.65625 267.234375 C 292.945312 267.425781 292.945312 267.8125 292.75 268.105469 C 291.6875 269.457031 290.625 270.8125 289.464844 272.164062 Z M 82.828125 268.394531 L 82.34375 268.105469 C 81.28125 266.75 80.21875 265.300781 79.253906 263.847656 C 79.058594 263.558594 79.15625 263.171875 79.445312 262.980469 C 79.734375 262.785156 80.121094 262.882812 80.316406 263.171875 C 81.28125 264.621094 82.34375 265.976562 83.410156 267.332031 C 83.601562 267.621094 83.601562 268.007812 83.3125 268.199219 Z M 293.8125 266.265625 L 293.429688 266.171875 C 293.136719 265.976562 293.042969 265.589844 293.332031 265.300781 C 294.394531 263.945312 295.359375 262.496094 296.328125 261.046875 C 296.519531 260.753906 296.90625 260.660156 297.195312 260.851562 C 297.488281 261.046875 297.582031 261.433594 297.390625 261.722656 C 296.425781 263.171875 295.359375 264.621094 294.394531 265.976562 Z M 78.285156 262.109375 L 77.707031 261.820312 C 76.738281 260.367188 75.773438 258.917969 74.902344 257.46875 C 74.710938 257.175781 74.808594 256.789062 75.097656 256.597656 C 75.386719 256.402344 75.773438 256.5 75.964844 256.789062 C 76.835938 258.242188 77.804688 259.691406 78.769531 261.140625 C 78.960938 261.433594 78.867188 261.820312 78.574219 262.011719 Z M 298.261719 259.886719 L 297.875 259.789062 C 297.582031 259.59375 297.488281 259.207031 297.679688 258.917969 C 298.648438 257.46875 299.515625 256.015625 300.386719 254.46875 C 300.578125 254.179688 300.964844 254.082031 301.257812 254.277344 C 301.546875 254.46875 301.644531 254.855469 301.449219 255.148438 C 300.578125 256.695312 299.613281 258.144531 298.648438 259.59375 Z M 74.035156 255.535156 L 73.453125 255.242188 C 72.582031 253.792969 71.714844 252.246094 70.84375 250.699219 C 70.652344 250.410156 70.746094 250.023438 71.132812 249.828125 C 71.425781 249.636719 71.8125 249.730469 72.003906 250.121094 C 72.875 251.667969 73.648438 253.117188 74.515625 254.664062 C 74.710938 254.953125 74.613281 255.339844 74.324219 255.535156 Z M 302.320312 253.117188 L 302.03125 253.019531 C 301.738281 252.828125 301.644531 252.441406 301.738281 252.148438 C 302.609375 250.601562 303.382812 249.152344 304.15625 247.605469 C 304.347656 247.316406 304.734375 247.121094 305.027344 247.316406 C 305.316406 247.507812 305.507812 247.894531 305.316406 248.183594 C 304.542969 249.730469 303.671875 251.28125 302.804688 252.828125 Z M 70.265625 248.667969 C 70.070312 248.667969 69.78125 248.570312 69.683594 248.28125 C 68.910156 246.734375 68.136719 245.1875 67.363281 243.640625 C 67.171875 243.351562 67.363281 242.964844 67.65625 242.769531 C 67.945312 242.578125 68.332031 242.769531 68.523438 243.0625 C 69.296875 244.609375 69.972656 246.15625 70.84375 247.703125 C 71.039062 247.992188 70.84375 248.378906 70.554688 248.570312 Z M 305.992188 246.25 L 305.703125 246.15625 C 305.414062 245.960938 305.21875 245.574219 305.414062 245.285156 C 306.1875 243.738281 306.863281 242.191406 307.636719 240.546875 C 307.730469 240.257812 308.214844 240.0625 308.503906 240.257812 C 308.796875 240.351562 308.988281 240.738281 308.796875 241.125 C 308.117188 242.769531 307.34375 244.316406 306.570312 245.863281 C 306.476562 246.058594 306.28125 246.25 305.992188 246.25 Z M 66.882812 241.609375 C 66.589844 241.609375 66.398438 241.511719 66.300781 241.222656 C 65.625 239.675781 64.949219 238.03125 64.273438 236.390625 C 64.175781 236.097656 64.273438 235.710938 64.660156 235.519531 C 64.949219 235.421875 65.335938 235.519531 65.527344 235.90625 C 66.203125 237.550781 66.785156 239.097656 67.558594 240.644531 C 67.65625 240.933594 67.558594 241.320312 67.269531 241.511719 Z M 309.277344 239.097656 L 308.988281 239 C 308.699219 238.902344 308.503906 238.515625 308.601562 238.128906 C 309.277344 236.484375 309.859375 234.9375 310.535156 233.292969 C 310.632812 233.003906 311.019531 232.8125 311.40625 232.90625 C 311.695312 233.003906 311.886719 233.390625 311.792969 233.777344 C 311.210938 235.421875 310.535156 237.066406 309.859375 238.710938 C 309.761719 239 309.472656 239.097656 309.277344 239.097656 Z M 63.980469 234.453125 C 63.691406 234.453125 63.5 234.261719 63.402344 234.066406 C 62.820312 232.425781 62.242188 230.78125 61.664062 229.136719 C 61.566406 228.75 61.757812 228.460938 62.050781 228.363281 C 62.4375 228.265625 62.726562 228.460938 62.820312 228.75 C 63.402344 230.394531 63.980469 232.039062 64.5625 233.679688 C 64.660156 233.972656 64.5625 234.359375 64.175781 234.550781 Z M 312.082031 231.746094 L 311.886719 231.746094 C 311.597656 231.652344 311.40625 231.265625 311.5 230.878906 C 312.082031 229.234375 312.5625 227.589844 313.144531 225.945312 C 313.242188 225.558594 313.628906 225.460938 313.917969 225.558594 C 314.304688 225.65625 314.496094 226.042969 314.304688 226.332031 C 313.820312 227.976562 313.242188 229.71875 312.660156 231.359375 C 312.5625 231.652344 312.273438 231.746094 312.082031 231.746094 Z M 61.46875 227.011719 C 61.179688 227.011719 60.890625 226.816406 60.890625 226.527344 C 60.40625 224.882812 59.921875 223.140625 59.4375 221.5 C 59.34375 221.113281 59.535156 220.820312 59.921875 220.726562 C 60.308594 220.628906 60.597656 220.820312 60.695312 221.207031 C 61.179688 222.851562 61.664062 224.59375 62.144531 226.234375 C 62.242188 226.621094 62.050781 226.914062 61.757812 227.011719 Z M 314.402344 224.300781 L 314.207031 224.300781 C 313.820312 224.207031 313.628906 223.820312 313.722656 223.527344 C 314.207031 221.886719 314.59375 220.242188 315.078125 218.5 C 315.175781 218.113281 315.558594 217.921875 315.851562 218.015625 C 316.238281 218.113281 316.429688 218.402344 316.332031 218.792969 C 315.945312 220.53125 315.464844 222.175781 314.980469 223.820312 C 314.882812 224.109375 314.691406 224.300781 314.402344 224.300781 Z M 59.4375 219.46875 C 59.148438 219.46875 58.859375 219.273438 58.761719 218.984375 C 58.375 217.242188 57.988281 215.601562 57.601562 213.859375 C 57.507812 213.472656 57.796875 213.183594 58.085938 213.085938 C 58.472656 212.988281 58.761719 213.28125 58.859375 213.570312 C 59.246094 215.308594 59.535156 216.953125 60.019531 218.597656 C 60.117188 218.984375 59.921875 219.273438 59.535156 219.371094 Z M 316.332031 216.761719 L 316.238281 216.761719 C 315.851562 216.664062 315.65625 216.375 315.753906 215.988281 C 316.140625 214.34375 316.429688 212.601562 316.71875 210.863281 C 316.816406 210.476562 317.105469 210.28125 317.492188 210.378906 C 317.878906 210.476562 318.074219 210.765625 317.976562 211.152344 C 317.6875 212.894531 317.300781 214.632812 316.914062 216.277344 C 316.816406 216.566406 316.625 216.761719 316.332031 216.761719 Z M 57.796875 211.828125 C 57.507812 211.828125 57.214844 211.636719 57.121094 211.25 C 56.828125 209.507812 56.539062 207.769531 56.25 206.125 C 56.25 205.738281 56.441406 205.449219 56.828125 205.351562 C 57.214844 205.351562 57.507812 205.542969 57.601562 205.929688 C 57.796875 207.671875 58.085938 209.316406 58.375 211.054688 C 58.472656 211.441406 58.183594 211.734375 57.894531 211.828125 Z M 317.785156 209.023438 L 317.6875 209.023438 C 317.300781 208.929688 317.105469 208.636719 317.105469 208.25 C 317.398438 206.609375 317.589844 204.867188 317.785156 203.125 C 317.785156 202.738281 318.171875 202.546875 318.460938 202.546875 C 318.847656 202.546875 319.039062 202.933594 319.039062 203.222656 C 318.847656 204.964844 318.558594 206.703125 318.363281 208.445312 C 318.363281 208.832031 318.074219 209.023438 317.785156 209.023438 Z M 56.636719 204.09375 C 56.347656 204.09375 56.058594 203.804688 55.960938 203.515625 C 55.765625 201.773438 55.574219 200.03125 55.476562 198.292969 C 55.476562 197.90625 55.671875 197.617188 56.058594 197.617188 C 56.441406 197.519531 56.734375 197.808594 56.734375 198.195312 C 56.828125 199.9375 57.023438 201.675781 57.214844 203.320312 C 57.3125 203.804688 57.023438 204.09375 56.636719 204.09375 Z M 318.75 201.289062 C 318.363281 201.289062 318.074219 200.902344 318.074219 200.613281 C 318.265625 198.871094 318.363281 197.132812 318.460938 195.488281 C 318.460938 195.101562 318.75 194.90625 319.136719 194.90625 C 319.523438 194.90625 319.8125 195.199219 319.714844 195.585938 C 319.621094 197.324219 319.523438 199.066406 319.328125 200.804688 C 319.328125 201.097656 319.039062 201.289062 318.75 201.289062 Z M 55.960938 196.359375 C 55.574219 196.359375 55.378906 196.070312 55.285156 195.777344 C 55.1875 194.039062 55.089844 192.296875 55.089844 190.558594 C 55.089844 190.171875 55.378906 189.878906 55.765625 189.878906 C 56.152344 189.878906 56.441406 190.171875 56.441406 190.558594 C 56.441406 192.296875 56.539062 194.039062 56.636719 195.777344 C 56.636719 196.070312 56.347656 196.359375 55.960938 196.359375 Z M 319.234375 193.554688 C 318.847656 193.554688 318.558594 193.265625 318.558594 192.878906 C 318.652344 191.136719 318.652344 189.398438 318.652344 187.65625 L 318.652344 187.171875 C 318.652344 186.785156 318.941406 186.496094 319.328125 186.496094 C 319.714844 186.496094 320.007812 186.785156 320.007812 187.171875 L 320.007812 187.65625 C 320.007812 189.398438 320.007812 191.136719 319.910156 192.878906 C 319.910156 193.265625 319.621094 193.554688 319.234375 193.554688 Z M 55.671875 188.527344 C 55.285156 188.527344 54.992188 188.238281 54.992188 187.851562 L 54.992188 187.65625 C 54.992188 185.914062 54.992188 184.273438 55.089844 182.628906 C 55.089844 182.242188 55.378906 182.046875 55.765625 182.046875 C 56.152344 182.046875 56.441406 182.339844 56.347656 182.726562 C 56.25 184.367188 56.25 186.011719 56.25 187.65625 L 56.25 187.851562 C 56.347656 188.238281 56.058594 188.527344 55.671875 188.527344 Z M 319.328125 185.238281 C 318.941406 185.238281 318.652344 184.949219 318.652344 184.5625 C 318.652344 182.820312 318.558594 181.082031 318.460938 179.339844 C 318.460938 178.953125 318.75 178.664062 319.039062 178.664062 C 319.425781 178.664062 319.714844 178.953125 319.714844 179.242188 C 319.8125 180.984375 319.910156 182.726562 319.910156 184.464844 C 320.007812 184.949219 319.714844 185.238281 319.328125 185.238281 Z M 55.863281 180.695312 C 55.476562 180.695312 55.1875 180.40625 55.1875 180.019531 C 55.285156 178.277344 55.378906 176.535156 55.574219 174.796875 C 55.574219 174.410156 55.863281 174.121094 56.25 174.214844 C 56.636719 174.214844 56.828125 174.601562 56.828125 174.894531 C 56.636719 176.632812 56.539062 178.375 56.441406 180.019531 C 56.539062 180.5 56.25 180.695312 55.863281 180.695312 Z M 318.941406 177.40625 C 318.652344 177.40625 318.363281 177.117188 318.265625 176.828125 C 318.171875 175.085938 317.976562 173.347656 317.785156 171.703125 C 317.785156 171.316406 317.976562 171.023438 318.363281 171.023438 C 318.75 171.023438 319.039062 171.21875 319.039062 171.605469 C 319.234375 173.347656 319.425781 175.085938 319.523438 176.828125 C 319.621094 177.117188 319.328125 177.40625 318.941406 177.40625 Z M 56.539062 172.960938 C 56.152344 172.960938 55.863281 172.574219 55.863281 172.28125 C 56.058594 170.542969 56.347656 168.800781 56.539062 167.0625 C 56.636719 166.675781 56.925781 166.480469 57.3125 166.480469 C 57.699219 166.578125 57.894531 166.867188 57.894531 167.253906 C 57.601562 168.996094 57.410156 170.636719 57.214844 172.378906 C 57.214844 172.667969 56.925781 172.960938 56.539062 172.960938 Z M 318.074219 169.671875 C 317.785156 169.671875 317.492188 169.476562 317.398438 169.089844 C 317.105469 167.351562 316.914062 165.707031 316.527344 163.964844 C 316.429688 163.578125 316.71875 163.289062 317.011719 163.191406 C 317.398438 163.097656 317.6875 163.386719 317.785156 163.675781 C 318.074219 165.417969 318.363281 167.15625 318.652344 168.800781 C 318.75 169.285156 318.460938 169.574219 318.074219 169.671875 Z M 57.699219 165.222656 L 57.601562 165.222656 C 57.214844 165.128906 57.023438 164.835938 57.121094 164.449219 C 57.410156 162.710938 57.796875 160.96875 58.085938 159.324219 C 58.183594 158.9375 58.472656 158.746094 58.859375 158.84375 C 59.246094 158.9375 59.4375 159.230469 59.34375 159.617188 C 58.957031 161.257812 58.667969 163 58.375 164.742188 C 58.28125 165.03125 57.988281 165.222656 57.699219 165.222656 Z M 316.71875 161.9375 C 316.429688 161.9375 316.140625 161.742188 316.042969 161.453125 C 315.65625 159.710938 315.367188 158.070312 314.882812 156.425781 C 314.789062 156.039062 314.980469 155.746094 315.367188 155.652344 C 315.753906 155.554688 316.042969 155.746094 316.140625 156.132812 C 316.527344 157.777344 316.914062 159.519531 317.300781 161.257812 C 317.398438 161.644531 317.105469 161.9375 316.816406 162.03125 Z M 59.246094 157.585938 L 59.054688 157.585938 C 58.667969 157.488281 58.472656 157.199219 58.570312 156.8125 C 58.957031 155.070312 59.4375 153.425781 59.921875 151.785156 C 60.019531 151.398438 60.40625 151.203125 60.695312 151.300781 C 61.082031 151.398438 61.277344 151.785156 61.179688 152.074219 C 60.695312 153.71875 60.308594 155.359375 59.921875 157.101562 C 59.824219 157.390625 59.632812 157.585938 59.246094 157.585938 Z M 314.980469 154.394531 C 314.691406 154.394531 314.402344 154.199219 314.402344 153.910156 C 313.917969 152.265625 313.433594 150.527344 312.949219 148.882812 C 312.855469 148.496094 313.046875 148.207031 313.335938 148.109375 C 313.722656 148.011719 314.015625 148.207031 314.109375 148.496094 C 314.59375 150.140625 315.078125 151.878906 315.558594 153.523438 C 315.65625 153.910156 315.464844 154.199219 315.078125 154.296875 Z M 61.371094 150.042969 L 61.179688 150.042969 C 60.792969 149.945312 60.597656 149.558594 60.792969 149.269531 C 61.277344 147.625 61.855469 145.886719 62.4375 144.242188 C 62.53125 143.855469 62.917969 143.757812 63.304688 143.855469 C 63.59375 143.953125 63.789062 144.339844 63.691406 144.726562 C 63.113281 146.367188 62.628906 148.011719 62.050781 149.65625 C 61.855469 149.851562 61.566406 150.042969 61.371094 150.042969 Z M 312.757812 146.851562 C 312.46875 146.851562 312.273438 146.660156 312.179688 146.367188 C 311.597656 144.726562 311.019531 143.082031 310.4375 141.4375 C 310.339844 141.148438 310.4375 140.761719 310.824219 140.566406 C 311.113281 140.46875 311.5 140.566406 311.695312 140.953125 C 312.273438 142.597656 312.855469 144.242188 313.433594 145.886719 C 313.53125 146.273438 313.335938 146.5625 313.046875 146.660156 Z M 63.789062 142.597656 L 63.59375 142.597656 C 63.304688 142.5 63.113281 142.113281 63.207031 141.726562 C 63.789062 140.082031 64.464844 138.441406 65.140625 136.796875 C 65.238281 136.507812 65.625 136.3125 66.011719 136.410156 C 66.300781 136.507812 66.496094 136.894531 66.398438 137.28125 C 65.722656 138.921875 65.140625 140.46875 64.464844 142.113281 C 64.367188 142.40625 64.078125 142.597656 63.789062 142.597656 Z M 310.050781 139.503906 C 309.761719 139.503906 309.566406 139.308594 309.472656 139.117188 C 308.796875 137.472656 308.117188 135.925781 307.441406 134.378906 C 307.34375 134.089844 307.441406 133.703125 307.730469 133.507812 C 308.023438 133.414062 308.410156 133.507812 308.601562 133.800781 C 309.277344 135.347656 309.953125 136.988281 310.632812 138.632812 C 310.726562 138.921875 310.632812 139.308594 310.246094 139.503906 Z M 66.785156 135.347656 L 66.496094 135.25 C 66.203125 135.152344 66.011719 134.765625 66.203125 134.378906 C 66.882812 132.734375 67.65625 131.1875 68.429688 129.640625 C 68.621094 129.351562 69.007812 129.15625 69.296875 129.351562 C 69.585938 129.542969 69.78125 129.929688 69.585938 130.222656 C 68.8125 131.769531 68.136719 133.316406 67.363281 134.960938 C 67.269531 135.152344 66.976562 135.347656 66.785156 135.347656 Z M 306.957031 132.445312 C 306.667969 132.445312 306.476562 132.347656 306.378906 132.058594 C 305.605469 130.511719 304.929688 128.964844 304.058594 127.417969 C 303.867188 127.128906 304.058594 126.742188 304.347656 126.546875 C 304.640625 126.355469 305.027344 126.546875 305.21875 126.835938 C 305.992188 128.382812 306.765625 129.929688 307.539062 131.476562 C 307.730469 131.769531 307.539062 132.15625 307.25 132.347656 Z M 70.167969 128.289062 L 69.878906 128.191406 C 69.585938 127.996094 69.394531 127.609375 69.585938 127.320312 C 70.359375 125.773438 71.230469 124.226562 72.101562 122.679688 C 72.292969 122.390625 72.679688 122.292969 72.96875 122.390625 C 73.261719 122.582031 73.355469 122.96875 73.261719 123.257812 C 72.390625 124.804688 71.617188 126.257812 70.84375 127.804688 C 70.554688 128.09375 70.359375 128.289062 70.167969 128.289062 Z M 303.480469 125.484375 L 302.898438 125.097656 C 302.03125 123.550781 301.257812 122.097656 300.386719 120.648438 C 300.191406 120.359375 300.289062 119.972656 300.578125 119.777344 C 300.871094 119.585938 301.257812 119.683594 301.449219 119.972656 C 302.320312 121.421875 303.1875 122.96875 304.058594 124.515625 C 304.253906 124.804688 304.15625 125.195312 303.769531 125.386719 Z M 73.9375 121.421875 L 73.648438 121.324219 C 73.355469 121.132812 73.261719 120.746094 73.453125 120.457031 C 74.324219 118.910156 75.289062 117.457031 76.160156 116.007812 C 76.351562 115.71875 76.738281 115.621094 77.03125 115.8125 C 77.320312 116.007812 77.417969 116.394531 77.222656 116.683594 C 76.257812 118.136719 75.386719 119.585938 74.515625 121.132812 Z M 299.515625 118.714844 L 298.9375 118.425781 C 298.066406 116.972656 297.101562 115.523438 296.132812 114.074219 C 295.941406 113.785156 296.039062 113.398438 296.328125 113.203125 C 296.617188 113.011719 297.003906 113.105469 297.195312 113.398438 C 298.164062 114.847656 299.128906 116.296875 300 117.75 C 300.191406 118.039062 300.097656 118.425781 299.808594 118.617188 Z M 78.09375 114.75 L 77.707031 114.652344 C 77.417969 114.460938 77.320312 114.074219 77.511719 113.785156 C 78.480469 112.332031 79.445312 110.882812 80.507812 109.53125 C 80.703125 109.238281 81.089844 109.140625 81.378906 109.433594 C 81.667969 109.625 81.765625 110.011719 81.476562 110.304688 C 80.414062 111.65625 79.445312 113.105469 78.480469 114.558594 Z M 295.167969 112.238281 L 294.683594 111.945312 C 293.71875 110.496094 292.65625 109.140625 291.589844 107.789062 C 291.398438 107.5 291.398438 107.113281 291.6875 106.917969 C 291.976562 106.726562 292.363281 106.726562 292.558594 107.015625 C 293.621094 108.367188 294.683594 109.820312 295.652344 111.269531 C 295.84375 111.558594 295.746094 111.945312 295.457031 112.140625 Z M 82.636719 108.464844 L 82.25 108.367188 C 81.957031 108.175781 81.863281 107.789062 82.152344 107.5 C 83.214844 106.144531 84.277344 104.695312 85.4375 103.4375 C 85.632812 103.148438 86.113281 103.148438 86.308594 103.339844 C 86.597656 103.535156 86.597656 104.019531 86.40625 104.210938 C 85.339844 105.566406 84.183594 106.917969 83.214844 108.273438 Z M 290.527344 105.953125 L 290.046875 105.660156 C 288.980469 104.308594 287.820312 102.953125 286.757812 101.699219 C 286.566406 101.40625 286.566406 101.019531 286.855469 100.828125 C 287.144531 100.632812 287.53125 100.632812 287.726562 100.921875 C 288.886719 102.277344 289.949219 103.535156 291.109375 104.984375 C 291.300781 105.273438 291.300781 105.660156 291.011719 105.855469 Z M 87.5625 102.375 L 87.179688 102.179688 C 86.886719 101.988281 86.886719 101.503906 87.082031 101.308594 C 88.242188 99.957031 89.402344 98.699219 90.5625 97.441406 C 90.851562 97.152344 91.238281 97.152344 91.527344 97.441406 C 91.816406 97.734375 91.816406 98.121094 91.527344 98.410156 C 90.367188 99.667969 89.207031 100.921875 88.046875 102.277344 Z M 285.503906 100.054688 L 285.019531 99.859375 C 283.859375 98.601562 282.699219 97.347656 281.441406 96.089844 C 281.152344 95.800781 281.152344 95.414062 281.441406 95.121094 C 281.734375 94.832031 282.121094 94.929688 282.410156 95.121094 C 283.667969 96.378906 284.824219 97.636719 285.984375 98.988281 C 286.179688 99.28125 286.179688 99.667969 285.890625 99.859375 Z M 92.785156 96.574219 L 92.300781 96.378906 C 92.011719 96.089844 92.011719 95.703125 92.300781 95.414062 C 93.558594 94.15625 94.714844 92.898438 95.972656 91.738281 C 96.261719 91.449219 96.648438 91.542969 96.9375 91.738281 C 97.230469 92.027344 97.132812 92.414062 96.9375 92.703125 C 95.683594 93.863281 94.425781 95.121094 93.265625 96.378906 Z M 280.089844 94.347656 L 279.605469 94.15625 C 278.351562 92.898438 277.09375 91.738281 275.835938 90.578125 C 275.546875 90.382812 275.546875 89.902344 275.835938 89.707031 C 276.03125 89.417969 276.515625 89.417969 276.707031 89.707031 C 277.964844 90.867188 279.21875 92.125 280.476562 93.285156 C 280.765625 93.574219 280.765625 93.960938 280.476562 94.253906 Z M 98.390625 91.15625 L 97.90625 90.964844 C 97.710938 90.675781 97.710938 90.289062 97.90625 89.996094 C 99.164062 88.835938 100.515625 87.675781 101.867188 86.515625 C 102.160156 86.324219 102.546875 86.324219 102.738281 86.613281 C 102.933594 86.902344 102.933594 87.289062 102.640625 87.484375 C 101.289062 88.644531 100.03125 89.707031 98.777344 90.964844 Z M 274.386719 89.03125 L 274 88.835938 C 272.746094 87.675781 271.390625 86.613281 270.039062 85.453125 C 269.75 85.257812 269.75 84.777344 269.941406 84.582031 C 270.136719 84.292969 270.617188 84.292969 270.8125 84.484375 C 272.164062 85.550781 273.519531 86.710938 274.773438 87.871094 C 275.0625 88.0625 275.0625 88.546875 274.871094 88.742188 Z M 104.285156 86.03125 L 103.800781 85.839844 C 103.609375 85.550781 103.609375 85.164062 103.898438 84.96875 C 105.25 83.90625 106.605469 82.746094 108.054688 81.777344 C 108.34375 81.585938 108.730469 81.585938 108.925781 81.875 C 109.117188 82.164062 109.117188 82.550781 108.828125 82.746094 C 107.472656 83.808594 106.121094 84.871094 104.769531 85.9375 Z M 268.300781 84.097656 L 267.914062 84.003906 C 266.558594 82.9375 265.207031 81.875 263.757812 80.910156 C 263.464844 80.714844 263.371094 80.328125 263.5625 80.039062 C 263.757812 79.75 264.144531 79.652344 264.433594 79.84375 C 265.882812 80.910156 267.234375 81.875 268.589844 82.9375 C 268.878906 83.132812 268.878906 83.519531 268.6875 83.808594 Z M 110.46875 81.296875 L 109.988281 81.003906 C 109.792969 80.714844 109.890625 80.328125 110.179688 80.136719 C 111.628906 79.070312 112.984375 78.105469 114.53125 77.136719 C 114.820312 76.945312 115.207031 77.039062 115.398438 77.332031 C 115.59375 77.621094 115.496094 78.007812 115.207031 78.199219 C 113.757812 79.167969 112.308594 80.136719 110.953125 81.101562 Z M 262.015625 79.457031 L 261.628906 79.363281 C 260.179688 78.394531 258.730469 77.425781 257.28125 76.558594 C 256.992188 76.363281 256.894531 75.976562 257.085938 75.6875 C 257.28125 75.398438 257.667969 75.300781 257.957031 75.492188 C 259.40625 76.460938 260.855469 77.425781 262.308594 78.394531 C 262.597656 78.589844 262.691406 78.976562 262.5 79.265625 Z M 116.945312 76.945312 L 116.367188 76.652344 C 116.171875 76.363281 116.269531 75.976562 116.558594 75.785156 C 118.007812 74.816406 119.554688 73.945312 121.003906 73.078125 C 121.296875 72.882812 121.683594 72.980469 121.875 73.269531 C 122.066406 73.558594 121.972656 73.945312 121.683594 74.140625 C 120.230469 75.011719 118.6875 75.878906 117.234375 76.847656 Z M 255.445312 75.203125 L 255.15625 75.105469 C 253.703125 74.238281 252.160156 73.367188 250.613281 72.496094 C 250.320312 72.304688 250.226562 71.917969 250.320312 71.625 C 250.417969 71.335938 250.902344 71.238281 251.191406 71.335938 C 252.738281 72.207031 254.285156 73.078125 255.734375 73.945312 C 256.023438 74.140625 256.121094 74.527344 255.929688 74.816406 Z M 123.613281 72.882812 L 123.035156 72.59375 C 122.839844 72.304688 122.9375 71.917969 123.324219 71.722656 C 124.871094 70.851562 126.417969 70.078125 127.964844 69.304688 C 128.253906 69.113281 128.640625 69.304688 128.832031 69.59375 C 129.027344 69.886719 128.832031 70.273438 128.542969 70.464844 C 126.996094 71.238281 125.449219 72.011719 124 72.882812 Z M 248.582031 71.433594 L 248.292969 71.335938 C 246.746094 70.5625 245.199219 69.789062 243.652344 69.015625 C 243.363281 68.820312 243.171875 68.433594 243.363281 68.144531 C 243.558594 67.855469 243.941406 67.660156 244.234375 67.855469 C 245.78125 68.628906 247.421875 69.402344 248.96875 70.175781 C 249.257812 70.367188 249.453125 70.757812 249.257812 71.046875 Z M 130.574219 69.304688 C 130.378906 69.304688 130.089844 69.207031 129.992188 68.917969 C 129.800781 68.628906 129.992188 68.242188 130.285156 68.046875 C 131.828125 67.273438 133.472656 66.597656 135.019531 65.921875 C 135.308594 65.824219 135.695312 65.921875 135.890625 66.210938 C 135.984375 66.5 135.890625 66.886719 135.597656 67.082031 C 134.054688 67.757812 132.410156 68.433594 130.863281 69.207031 Z M 241.527344 67.953125 L 241.238281 67.855469 C 239.691406 67.179688 238.046875 66.5 236.5 65.824219 C 236.210938 65.726562 236.019531 65.339844 236.113281 64.953125 C 236.210938 64.664062 236.597656 64.472656 236.984375 64.566406 C 238.628906 65.246094 240.175781 65.921875 241.816406 66.597656 C 242.105469 66.792969 242.300781 67.082031 242.105469 67.46875 C 242.011719 67.855469 241.816406 67.953125 241.527344 67.953125 Z M 137.726562 66.210938 C 137.4375 66.210938 137.242188 66.019531 137.144531 65.824219 C 137.050781 65.535156 137.144531 65.148438 137.53125 64.953125 C 139.175781 64.277344 140.816406 63.699219 142.460938 63.019531 C 142.75 62.925781 143.136719 63.117188 143.332031 63.40625 C 143.429688 63.699219 143.234375 64.085938 142.945312 64.277344 C 141.300781 64.859375 139.660156 65.535156 138.113281 66.113281 Z M 234.375 64.953125 L 234.183594 64.953125 C 232.539062 64.375 230.894531 63.792969 229.253906 63.214844 C 228.867188 63.117188 228.769531 62.730469 228.867188 62.34375 C 228.960938 62.054688 229.347656 61.859375 229.734375 61.957031 C 231.378906 62.535156 233.023438 63.117188 234.664062 63.699219 C 234.953125 63.792969 235.148438 64.179688 235.050781 64.566406 C 234.859375 64.859375 234.566406 64.953125 234.375 64.953125 Z M 144.972656 63.40625 C 144.683594 63.40625 144.492188 63.214844 144.394531 62.925781 C 144.296875 62.535156 144.492188 62.246094 144.78125 62.054688 C 146.425781 61.472656 148.066406 60.988281 149.808594 60.507812 C 150.191406 60.410156 150.484375 60.601562 150.578125 60.988281 C 150.675781 61.375 150.484375 61.667969 150.097656 61.761719 C 148.453125 62.246094 146.8125 62.828125 145.167969 63.3125 Z M 226.933594 62.441406 L 226.738281 62.441406 C 225.097656 61.957031 223.453125 61.472656 221.8125 60.988281 C 221.425781 60.894531 221.230469 60.507812 221.328125 60.214844 C 221.425781 59.828125 221.8125 59.636719 222.101562 59.734375 C 223.742188 60.214844 225.484375 60.699219 227.125 61.183594 C 227.511719 61.28125 227.707031 61.667969 227.511719 61.957031 C 227.511719 62.246094 227.222656 62.441406 226.933594 62.441406 Z M 152.417969 61.183594 C 152.125 61.183594 151.835938 60.988281 151.835938 60.699219 C 151.738281 60.3125 151.933594 60.023438 152.320312 59.925781 C 153.960938 59.441406 155.703125 59.054688 157.34375 58.667969 C 157.730469 58.574219 158.023438 58.765625 158.117188 59.152344 C 158.214844 59.539062 158.023438 59.828125 157.636719 59.925781 C 155.992188 60.3125 154.253906 60.699219 152.609375 61.183594 Z M 219.394531 60.3125 L 219.199219 60.3125 C 217.558594 59.925781 215.816406 59.539062 214.175781 59.152344 C 213.789062 59.054688 213.59375 58.765625 213.691406 58.378906 C 213.789062 57.992188 214.078125 57.800781 214.464844 57.894531 C 216.203125 58.28125 217.847656 58.667969 219.585938 59.054688 C 219.972656 59.152344 220.167969 59.539062 220.070312 59.828125 C 219.972656 60.121094 219.683594 60.3125 219.394531 60.3125 Z M 160.050781 59.25 C 159.761719 59.25 159.472656 59.054688 159.375 58.765625 C 159.277344 58.378906 159.566406 58.089844 159.859375 57.992188 C 161.597656 57.605469 163.242188 57.316406 164.980469 57.027344 C 165.367188 56.929688 165.65625 57.21875 165.753906 57.507812 C 165.851562 57.894531 165.5625 58.1875 165.269531 58.28125 C 163.53125 58.574219 161.886719 58.863281 160.148438 59.25 Z M 211.757812 58.667969 L 211.664062 58.667969 C 209.921875 58.378906 208.28125 58.089844 206.539062 57.800781 C 206.152344 57.703125 205.960938 57.414062 205.960938 57.027344 C 206.058594 56.640625 206.347656 56.445312 206.734375 56.445312 C 208.472656 56.734375 210.210938 57.027344 211.855469 57.316406 C 212.242188 57.414062 212.4375 57.703125 212.339844 58.089844 C 212.339844 58.476562 212.050781 58.667969 211.757812 58.667969 Z M 167.6875 57.894531 C 167.398438 57.894531 167.105469 57.703125 167.011719 57.316406 C 166.914062 56.929688 167.203125 56.640625 167.589844 56.542969 C 169.328125 56.253906 171.070312 56.058594 172.808594 55.867188 C 173.195312 55.769531 173.484375 56.058594 173.484375 56.445312 C 173.484375 56.832031 173.292969 57.121094 172.90625 57.121094 C 171.261719 57.414062 169.523438 57.605469 167.6875 57.894531 Z M 204.027344 57.414062 C 202.191406 57.21875 200.546875 57.027344 198.808594 56.832031 C 198.421875 56.832031 198.226562 56.445312 198.226562 56.15625 C 198.226562 55.769531 198.519531 55.574219 198.90625 55.574219 C 200.644531 55.769531 202.382812 55.867188 204.125 56.15625 C 204.511719 56.15625 204.703125 56.542969 204.703125 56.929688 C 204.703125 57.21875 204.414062 57.414062 204.027344 57.414062 Z M 175.515625 56.929688 C 175.226562 56.929688 174.9375 56.640625 174.839844 56.347656 C 174.839844 55.960938 175.03125 55.671875 175.417969 55.671875 C 177.160156 55.480469 178.898438 55.382812 180.636719 55.285156 C 181.023438 55.285156 181.3125 55.574219 181.3125 55.867188 C 181.3125 56.253906 181.023438 56.542969 180.734375 56.542969 C 178.996094 56.640625 177.253906 56.832031 175.515625 56.929688 Z M 196.296875 56.734375 C 194.554688 56.640625 192.816406 56.542969 191.074219 56.542969 C 190.6875 56.542969 190.398438 56.253906 190.398438 55.867188 C 190.398438 55.480469 190.6875 55.1875 191.074219 55.1875 C 192.816406 55.1875 194.652344 55.285156 196.296875 55.480469 C 196.683594 55.480469 196.972656 55.769531 196.875 56.15625 C 196.875 56.445312 196.585938 56.734375 196.296875 56.734375 Z M 183.246094 56.445312 C 182.859375 56.445312 182.570312 56.15625 182.570312 55.769531 C 182.570312 55.382812 182.859375 55.09375 183.246094 55.09375 C 184.695312 55.09375 186.148438 54.996094 187.5 54.996094 L 188.464844 54.996094 C 188.851562 54.996094 189.144531 55.285156 189.144531 55.671875 C 189.144531 56.058594 188.851562 56.347656 188.464844 56.347656 L 187.5 56.347656 C 186.148438 56.445312 184.695312 56.445312 183.246094 56.445312 Z M 183.246094 56.445312 " fill-opacity="1" fill-rule="nonzero"/><path fill="#dadae5" d="M 188.273438 281.351562 C 187.886719 281.351562 187.597656 281.058594 187.597656 280.671875 C 187.597656 280.285156 187.886719 279.996094 188.273438 279.996094 C 190.011719 279.996094 191.753906 279.898438 193.394531 279.804688 C 193.78125 279.707031 194.070312 280.09375 194.070312 280.382812 C 194.070312 280.769531 193.78125 281.058594 193.492188 281.058594 C 191.753906 281.253906 190.011719 281.351562 188.273438 281.351562 Z M 185.664062 281.351562 C 183.925781 281.351562 182.183594 281.253906 180.445312 281.058594 C 180.058594 281.058594 179.863281 280.769531 179.863281 280.382812 C 179.863281 279.996094 180.15625 279.707031 180.542969 279.804688 C 182.28125 279.898438 183.925781 279.996094 185.664062 279.996094 C 186.050781 279.996094 186.339844 280.285156 186.339844 280.671875 C 186.339844 281.058594 186.050781 281.351562 185.664062 281.351562 Z M 196.003906 280.964844 C 195.714844 280.964844 195.425781 280.671875 195.328125 280.382812 C 195.328125 279.996094 195.523438 279.707031 195.910156 279.707031 C 197.550781 279.511719 199.292969 279.320312 201.03125 279.125 C 201.417969 279.03125 201.707031 279.320312 201.804688 279.707031 C 201.902344 280.09375 201.609375 280.382812 201.222656 280.480469 C 199.582031 280.578125 197.839844 280.769531 196.003906 280.964844 Z M 177.933594 280.867188 C 176.191406 280.671875 174.453125 280.480469 172.710938 280.191406 C 172.324219 280.09375 172.132812 279.804688 172.132812 279.417969 C 172.230469 279.03125 172.519531 278.835938 172.90625 278.835938 C 174.644531 279.125 176.289062 279.320312 178.027344 279.511719 C 178.414062 279.511719 178.609375 279.898438 178.609375 280.191406 C 178.511719 280.578125 178.222656 280.867188 177.933594 280.867188 Z M 203.738281 279.898438 C 203.445312 279.898438 203.15625 279.707031 203.0625 279.320312 C 202.964844 278.933594 203.253906 278.644531 203.542969 278.546875 C 205.1875 278.257812 206.925781 277.871094 208.570312 277.484375 C 208.957031 277.386719 209.246094 277.578125 209.34375 277.964844 C 209.4375 278.351562 209.246094 278.644531 208.859375 278.738281 C 207.121094 279.125 205.476562 279.511719 203.738281 279.804688 Z M 170.199219 279.707031 L 170.101562 279.707031 C 168.363281 279.417969 166.71875 279.03125 164.980469 278.644531 C 164.59375 278.546875 164.402344 278.160156 164.496094 277.871094 C 164.59375 277.484375 164.980469 277.289062 165.269531 277.386719 C 166.914062 277.773438 168.652344 278.160156 170.296875 278.449219 C 170.683594 278.546875 170.875 278.835938 170.78125 279.222656 C 170.78125 279.511719 170.488281 279.707031 170.199219 279.707031 Z M 211.371094 278.257812 C 211.082031 278.257812 210.792969 278.0625 210.695312 277.773438 C 210.597656 277.386719 210.792969 277.097656 211.179688 277 C 212.820312 276.613281 214.464844 276.128906 216.109375 275.550781 C 216.496094 275.453125 216.785156 275.644531 216.882812 275.9375 C 216.976562 276.324219 216.785156 276.613281 216.496094 276.710938 C 214.851562 277.289062 213.113281 277.773438 211.46875 278.160156 Z M 162.660156 277.964844 L 162.46875 277.964844 C 160.824219 277.484375 159.183594 277 157.441406 276.417969 C 157.054688 276.324219 156.957031 275.9375 157.054688 275.550781 C 157.152344 275.164062 157.539062 275.066406 157.925781 275.164062 C 159.566406 275.742188 161.210938 276.226562 162.855469 276.710938 C 163.242188 276.804688 163.433594 277.191406 163.335938 277.484375 C 163.144531 277.773438 162.949219 277.964844 162.660156 277.964844 Z M 218.8125 275.9375 C 218.523438 275.9375 218.332031 275.742188 218.234375 275.550781 C 218.136719 275.164062 218.332031 274.871094 218.621094 274.679688 C 220.167969 274.097656 221.8125 273.519531 223.453125 272.839844 C 223.742188 272.746094 224.128906 272.839844 224.324219 273.226562 C 224.421875 273.519531 224.324219 273.90625 223.9375 274.097656 C 222.292969 274.777344 220.652344 275.453125 219.105469 276.03125 Z M 155.21875 275.550781 L 155.027344 275.550781 C 153.382812 274.96875 151.738281 274.292969 150.191406 273.617188 C 149.902344 273.519531 149.710938 273.132812 149.902344 272.746094 C 150 272.453125 150.386719 272.261719 150.773438 272.453125 C 152.320312 273.132812 153.960938 273.808594 155.605469 274.390625 C 155.894531 274.484375 156.089844 274.871094 155.992188 275.257812 C 155.703125 275.355469 155.507812 275.550781 155.21875 275.550781 Z M 225.964844 273.035156 C 225.675781 273.035156 225.484375 272.9375 225.386719 272.648438 C 225.191406 272.359375 225.386719 271.972656 225.675781 271.777344 C 227.222656 271.101562 228.769531 270.328125 230.316406 269.554688 C 230.605469 269.359375 230.992188 269.554688 231.1875 269.84375 C 231.378906 270.132812 231.1875 270.519531 230.894531 270.714844 C 229.347656 271.488281 227.804688 272.261719 226.257812 273.035156 Z M 148.066406 272.550781 L 147.777344 272.453125 C 146.230469 271.679688 144.585938 270.90625 143.136719 270.132812 C 142.847656 269.941406 142.75 269.554688 142.847656 269.265625 C 143.042969 268.972656 143.429688 268.878906 143.71875 268.972656 C 145.167969 269.746094 146.8125 270.519531 148.355469 271.292969 C 148.648438 271.488281 148.839844 271.875 148.648438 272.164062 C 148.453125 272.359375 148.261719 272.550781 148.066406 272.550781 Z M 232.925781 269.554688 L 232.34375 269.265625 C 232.152344 268.972656 232.25 268.585938 232.636719 268.394531 C 234.085938 267.523438 235.632812 266.652344 237.082031 265.785156 C 237.371094 265.589844 237.757812 265.6875 237.949219 265.976562 C 238.144531 266.265625 238.046875 266.652344 237.757812 266.847656 C 236.308594 267.8125 234.761719 268.683594 233.3125 269.554688 Z M 141.109375 268.972656 L 140.816406 268.878906 C 139.273438 268.007812 137.820312 267.039062 136.371094 266.171875 C 136.082031 265.976562 135.984375 265.589844 136.179688 265.300781 C 136.371094 265.007812 136.757812 264.914062 137.050781 265.105469 C 138.5 266.074219 139.949219 266.945312 141.398438 267.8125 C 141.6875 268.007812 141.785156 268.394531 141.589844 268.683594 Z M 239.496094 265.394531 L 238.917969 265.105469 C 238.722656 264.816406 238.820312 264.429688 239.109375 264.234375 C 240.5625 263.269531 241.914062 262.300781 243.265625 261.238281 C 243.558594 261.046875 243.941406 261.046875 244.136719 261.335938 C 244.328125 261.625 244.328125 262.011719 244.039062 262.207031 C 242.6875 263.269531 241.238281 264.234375 239.789062 265.203125 Z M 134.535156 264.71875 L 134.148438 264.621094 C 132.699219 263.65625 131.25 262.59375 129.898438 261.527344 C 129.605469 261.335938 129.605469 260.851562 129.800781 260.660156 C 129.992188 260.367188 130.476562 260.367188 130.671875 260.5625 C 132.023438 261.625 133.375 262.59375 134.824219 263.65625 C 135.117188 263.847656 135.210938 264.234375 135.019531 264.527344 Z M 245.78125 260.753906 L 245.296875 260.464844 C 245.101562 260.175781 245.101562 259.789062 245.394531 259.59375 C 246.746094 258.53125 248.003906 257.371094 249.355469 256.210938 C 249.644531 256.015625 250.03125 256.015625 250.226562 256.308594 C 250.417969 256.597656 250.417969 256.984375 250.226562 257.175781 C 248.871094 258.339844 247.617188 259.5 246.261719 260.5625 Z M 128.351562 260.078125 L 127.964844 259.886719 C 126.609375 258.820312 125.355469 257.660156 124 256.402344 C 123.710938 256.113281 123.710938 255.726562 124 255.4375 C 124.195312 255.148438 124.679688 255.148438 124.96875 255.4375 C 126.222656 256.597656 127.578125 257.757812 128.832031 258.820312 C 129.125 259.015625 129.125 259.5 128.929688 259.691406 Z M 251.675781 255.628906 L 251.191406 255.4375 C 250.902344 255.148438 251 254.761719 251.191406 254.46875 C 252.449219 253.308594 253.703125 252.054688 254.863281 250.796875 C 255.15625 250.507812 255.542969 250.507812 255.832031 250.796875 C 256.121094 251.085938 256.121094 251.472656 255.832031 251.761719 C 254.671875 253.019531 253.414062 254.277344 252.160156 255.4375 Z M 122.550781 254.855469 L 122.066406 254.664062 C 120.8125 253.503906 119.652344 252.148438 118.394531 250.894531 C 118.203125 250.601562 118.203125 250.214844 118.394531 249.925781 C 118.6875 249.730469 119.070312 249.730469 119.363281 249.925781 C 120.523438 251.183594 121.683594 252.441406 122.9375 253.601562 C 123.226562 253.890625 123.226562 254.277344 122.9375 254.566406 Z M 257.085938 250.121094 L 256.699219 249.925781 C 256.410156 249.730469 256.410156 249.25 256.605469 249.054688 C 257.765625 247.796875 258.828125 246.445312 259.890625 245.089844 C 260.082031 244.800781 260.566406 244.800781 260.761719 244.996094 C 261.050781 245.1875 261.050781 245.671875 260.855469 245.863281 C 259.792969 247.21875 258.632812 248.570312 257.472656 249.828125 Z M 117.234375 249.152344 L 116.753906 248.957031 C 115.59375 247.703125 114.53125 246.25 113.464844 244.898438 C 113.273438 244.609375 113.273438 244.222656 113.5625 244.027344 C 113.851562 243.835938 114.238281 243.835938 114.433594 244.125 C 115.496094 245.476562 116.558594 246.832031 117.71875 248.089844 C 117.914062 248.378906 117.914062 248.765625 117.621094 249.054688 Z M 262.015625 244.027344 L 261.628906 243.929688 C 261.339844 243.738281 261.242188 243.351562 261.535156 243.0625 C 262.597656 241.707031 263.5625 240.257812 264.53125 238.804688 C 264.722656 238.515625 265.109375 238.417969 265.398438 238.613281 C 265.6875 238.804688 265.785156 239.191406 265.59375 239.484375 C 264.625 240.933594 263.660156 242.382812 262.597656 243.738281 Z M 112.402344 243.0625 L 111.921875 242.769531 C 110.855469 241.320312 109.890625 239.871094 108.925781 238.417969 C 108.730469 238.128906 108.828125 237.742188 109.117188 237.550781 C 109.40625 237.355469 109.792969 237.453125 109.988281 237.742188 C 110.953125 239.191406 111.921875 240.546875 112.886719 241.996094 C 113.078125 242.285156 113.078125 242.675781 112.789062 242.867188 Z M 266.367188 237.644531 L 265.980469 237.550781 C 265.6875 237.355469 265.59375 236.96875 265.785156 236.679688 C 266.65625 235.230469 267.621094 233.679688 268.394531 232.230469 C 268.589844 231.941406 268.976562 231.84375 269.265625 231.941406 C 269.554688 232.132812 269.652344 232.519531 269.554688 232.8125 C 268.6875 234.359375 267.816406 235.808594 266.945312 237.355469 Z M 108.054688 236.582031 L 107.472656 236.292969 C 106.605469 234.84375 105.734375 233.292969 104.863281 231.746094 C 104.671875 231.457031 104.769531 231.070312 105.15625 230.878906 C 105.445312 230.683594 105.832031 230.78125 106.023438 231.167969 C 106.796875 232.714844 107.667969 234.164062 108.539062 235.617188 C 108.730469 235.90625 108.632812 236.292969 108.34375 236.484375 Z M 270.230469 230.878906 L 269.941406 230.78125 C 269.652344 230.585938 269.457031 230.199219 269.652344 229.910156 C 270.425781 228.363281 271.199219 226.816406 271.875 225.269531 C 272.066406 224.980469 272.359375 224.785156 272.746094 224.980469 C 273.035156 225.171875 273.226562 225.460938 273.035156 225.847656 C 272.359375 227.492188 271.585938 229.039062 270.8125 230.585938 C 270.714844 230.683594 270.523438 230.878906 270.230469 230.878906 Z M 104.285156 229.8125 C 104.089844 229.8125 103.800781 229.71875 103.703125 229.425781 C 102.933594 227.878906 102.160156 226.234375 101.480469 224.6875 C 101.386719 224.398438 101.480469 224.011719 101.867188 223.820312 C 102.160156 223.722656 102.546875 223.820312 102.738281 224.207031 C 103.414062 225.753906 104.089844 227.300781 104.863281 228.847656 C 105.058594 229.136719 104.863281 229.523438 104.574219 229.71875 Z M 273.519531 223.722656 L 273.226562 223.625 C 272.9375 223.527344 272.746094 223.140625 272.839844 222.753906 C 273.519531 221.207031 274.097656 219.566406 274.679688 217.921875 C 274.773438 217.535156 275.160156 217.4375 275.546875 217.535156 C 275.933594 217.628906 276.03125 218.015625 275.933594 218.402344 C 275.355469 220.046875 274.773438 221.691406 274.097656 223.335938 C 274 223.625 273.808594 223.722656 273.519531 223.722656 Z M 101.09375 222.753906 C 100.804688 222.753906 100.613281 222.5625 100.515625 222.367188 C 99.839844 220.726562 99.257812 219.082031 98.679688 217.4375 C 98.582031 217.050781 98.777344 216.761719 99.066406 216.566406 C 99.453125 216.46875 99.742188 216.664062 99.9375 216.953125 C 100.515625 218.597656 101.09375 220.242188 101.675781 221.789062 C 101.773438 222.078125 101.675781 222.464844 101.289062 222.660156 Z M 276.222656 216.46875 L 276.03125 216.46875 C 275.644531 216.375 275.449219 215.988281 275.644531 215.695312 C 276.128906 214.054688 276.609375 212.410156 277.09375 210.765625 C 277.191406 210.378906 277.578125 210.183594 277.867188 210.28125 C 278.253906 210.378906 278.445312 210.765625 278.351562 211.054688 C 277.964844 212.796875 277.480469 214.441406 276.902344 216.082031 C 276.707031 216.277344 276.417969 216.46875 276.222656 216.46875 Z M 98.582031 215.40625 C 98.292969 215.40625 98.003906 215.214844 98.003906 214.921875 C 97.519531 213.28125 97.035156 211.539062 96.648438 209.894531 C 96.554688 209.507812 96.746094 209.21875 97.132812 209.121094 C 97.519531 209.023438 97.808594 209.21875 97.90625 209.605469 C 98.292969 211.25 98.777344 212.894531 99.257812 214.535156 C 99.355469 214.921875 99.164062 215.214844 98.871094 215.308594 Z M 278.253906 208.929688 L 278.15625 208.929688 C 277.769531 208.832031 277.578125 208.542969 277.675781 208.15625 C 278.058594 206.511719 278.351562 204.769531 278.640625 203.125 C 278.738281 202.738281 279.027344 202.546875 279.414062 202.546875 C 279.800781 202.644531 279.992188 202.933594 279.992188 203.320312 C 279.703125 204.964844 279.414062 206.703125 279.027344 208.445312 C 278.738281 208.734375 278.542969 208.929688 278.253906 208.929688 Z M 96.554688 207.863281 C 96.261719 207.863281 95.972656 207.671875 95.875 207.382812 C 95.488281 205.640625 95.199219 203.902344 94.910156 202.257812 C 94.8125 201.871094 95.101562 201.578125 95.488281 201.484375 C 95.875 201.484375 96.167969 201.675781 96.261719 202.0625 C 96.554688 203.707031 96.84375 205.449219 97.230469 207.089844 C 97.324219 207.476562 97.035156 207.769531 96.746094 207.863281 Z M 279.605469 201.289062 C 279.125 201.191406 278.929688 200.902344 278.929688 200.515625 C 279.125 198.777344 279.316406 197.132812 279.511719 195.390625 C 279.511719 195.003906 279.898438 194.714844 280.1875 194.8125 C 280.574219 194.8125 280.765625 195.199219 280.765625 195.488281 C 280.671875 197.230469 280.476562 198.96875 280.1875 200.710938 C 280.1875 201 279.898438 201.289062 279.605469 201.289062 Z M 95.296875 200.128906 C 95.007812 200.128906 94.714844 199.9375 94.621094 199.550781 C 94.425781 197.808594 94.234375 196.070312 94.136719 194.328125 C 94.136719 193.941406 94.425781 193.652344 94.714844 193.652344 C 95.101562 193.652344 95.394531 193.941406 95.394531 194.230469 C 95.488281 195.972656 95.683594 197.617188 95.875 199.355469 C 95.972656 199.742188 95.78125 200.128906 95.296875 200.128906 Z M 280.378906 193.457031 C 279.992188 193.457031 279.703125 193.167969 279.703125 192.78125 C 279.800781 191.039062 279.800781 189.300781 279.800781 187.65625 L 279.800781 187.269531 C 279.800781 186.882812 280.089844 186.59375 280.476562 186.59375 C 280.863281 186.59375 281.152344 186.882812 281.152344 187.269531 L 281.152344 187.65625 C 281.152344 189.398438 281.058594 191.136719 281.058594 192.878906 C 280.960938 193.265625 280.671875 193.457031 280.378906 193.457031 Z M 94.621094 192.394531 C 94.234375 192.394531 93.941406 192.105469 93.941406 191.8125 C 93.847656 190.460938 93.847656 189.105469 93.847656 187.753906 L 93.847656 186.59375 C 93.847656 186.207031 94.136719 185.914062 94.523438 185.914062 C 94.910156 185.914062 95.199219 186.207031 95.199219 186.59375 L 95.199219 187.65625 C 95.199219 189.011719 95.199219 190.363281 95.296875 191.71875 C 95.296875 192.105469 95.007812 192.394531 94.621094 192.394531 Z M 280.476562 185.335938 C 280.089844 185.335938 279.800781 185.046875 279.800781 184.660156 C 279.703125 182.917969 279.605469 181.179688 279.511719 179.535156 C 279.511719 179.148438 279.703125 178.855469 280.089844 178.855469 C 280.476562 178.761719 280.765625 179.050781 280.765625 179.4375 C 280.960938 181.179688 281.058594 182.917969 281.058594 184.660156 C 281.152344 185.046875 280.863281 185.335938 280.476562 185.335938 Z M 94.621094 184.5625 C 94.234375 184.5625 93.941406 184.273438 93.941406 183.886719 C 94.039062 182.144531 94.136719 180.40625 94.328125 178.664062 C 94.328125 178.277344 94.621094 177.988281 95.007812 178.082031 C 95.394531 178.082031 95.585938 178.46875 95.585938 178.761719 C 95.394531 180.5 95.296875 182.242188 95.199219 183.886719 C 95.296875 184.367188 95.007812 184.5625 94.621094 184.5625 Z M 279.898438 177.601562 C 279.605469 177.601562 279.316406 177.308594 279.21875 177.019531 C 279.027344 175.375 278.738281 173.636719 278.445312 171.894531 C 278.351562 171.507812 278.640625 171.21875 278.929688 171.121094 C 279.316406 171.023438 279.605469 171.316406 279.703125 171.605469 C 279.992188 173.347656 280.285156 175.085938 280.476562 176.828125 C 280.574219 177.214844 280.285156 177.503906 279.898438 177.601562 Z M 95.296875 176.828125 C 94.8125 176.730469 94.621094 176.441406 94.621094 176.054688 C 94.8125 174.3125 95.101562 172.574219 95.394531 170.929688 C 95.488281 170.542969 95.78125 170.347656 96.167969 170.445312 C 96.554688 170.542969 96.746094 170.832031 96.648438 171.21875 C 96.359375 172.863281 96.070312 174.601562 95.875 176.34375 C 95.875 176.632812 95.585938 176.828125 95.296875 176.828125 Z M 278.640625 169.863281 C 278.351562 169.863281 278.0625 169.671875 277.964844 169.382812 C 277.675781 167.738281 277.289062 165.996094 276.804688 164.355469 C 276.707031 163.964844 276.902344 163.675781 277.289062 163.578125 C 277.675781 163.484375 277.964844 163.675781 278.058594 164.0625 C 278.542969 165.707031 278.929688 167.449219 279.21875 169.1875 C 279.316406 169.574219 279.027344 169.863281 278.738281 169.960938 Z M 96.554688 169.1875 L 96.457031 169.1875 C 96.070312 169.089844 95.875 168.800781 95.972656 168.414062 C 96.359375 166.675781 96.746094 165.03125 97.230469 163.289062 C 97.324219 162.902344 97.710938 162.710938 98.003906 162.804688 C 98.390625 162.902344 98.582031 163.289062 98.484375 163.578125 C 98.003906 165.222656 97.617188 166.964844 97.324219 168.609375 C 97.132812 168.996094 96.84375 169.1875 96.554688 169.1875 Z M 276.804688 162.324219 C 276.515625 162.324219 276.222656 162.128906 276.222656 161.839844 C 275.742188 160.195312 275.257812 158.550781 274.679688 156.910156 C 274.582031 156.617188 274.773438 156.230469 275.0625 156.039062 C 275.355469 155.941406 275.742188 156.132812 275.933594 156.425781 C 276.515625 158.070312 276.996094 159.710938 277.578125 161.355469 C 277.675781 161.742188 277.480469 162.03125 277.09375 162.128906 Z M 98.484375 161.644531 L 98.292969 161.644531 C 97.90625 161.550781 97.710938 161.164062 97.808594 160.871094 C 98.292969 159.230469 98.871094 157.585938 99.453125 155.941406 C 99.550781 155.554688 99.9375 155.457031 100.320312 155.554688 C 100.707031 155.652344 100.804688 156.039062 100.707031 156.425781 C 100.128906 158.070312 99.550781 159.710938 99.066406 161.355469 C 98.96875 161.453125 98.679688 161.644531 98.484375 161.644531 Z M 274.386719 154.972656 C 274.097656 154.972656 273.90625 154.78125 273.808594 154.585938 C 273.226562 153.039062 272.550781 151.398438 271.875 149.851562 C 271.683594 149.558594 271.875 149.171875 272.164062 148.980469 C 272.453125 148.785156 272.839844 148.980469 273.035156 149.269531 C 273.710938 150.816406 274.386719 152.460938 275.0625 154.105469 C 275.160156 154.394531 275.0625 154.78125 274.679688 154.972656 Z M 101 154.296875 L 100.804688 154.296875 C 100.515625 154.199219 100.320312 153.8125 100.417969 153.425781 C 101.09375 151.785156 101.773438 150.238281 102.449219 148.59375 C 102.640625 148.300781 103.027344 148.109375 103.316406 148.300781 C 103.609375 148.496094 103.800781 148.882812 103.609375 149.171875 C 102.933594 150.71875 102.253906 152.363281 101.578125 153.910156 C 101.480469 154.105469 101.289062 154.296875 101 154.296875 Z M 271.296875 147.820312 C 271.101562 147.820312 270.8125 147.722656 270.714844 147.433594 C 269.941406 145.886719 269.167969 144.339844 268.300781 142.886719 C 268.105469 142.597656 268.203125 142.210938 268.589844 142.019531 C 268.878906 141.824219 269.265625 141.921875 269.457031 142.308594 C 270.328125 143.855469 271.101562 145.402344 271.875 146.949219 C 272.066406 147.238281 271.875 147.625 271.585938 147.820312 Z M 104.1875 147.140625 L 103.898438 147.046875 C 103.609375 146.851562 103.414062 146.464844 103.609375 146.175781 C 104.382812 144.628906 105.15625 143.082031 106.023438 141.535156 C 106.21875 141.246094 106.605469 141.148438 106.894531 141.246094 C 107.183594 141.4375 107.28125 141.824219 107.183594 142.113281 C 106.3125 143.660156 105.542969 145.113281 104.769531 146.660156 C 104.574219 146.949219 104.382812 147.140625 104.1875 147.140625 Z M 267.621094 140.953125 L 267.042969 140.664062 C 266.171875 139.214844 265.207031 137.761719 264.335938 136.3125 C 264.144531 136.023438 264.238281 135.636719 264.53125 135.441406 C 264.820312 135.25 265.207031 135.347656 265.398438 135.636719 C 266.367188 137.085938 267.332031 138.535156 268.203125 140.082031 C 268.394531 140.375 268.300781 140.761719 268.007812 140.953125 Z M 107.859375 140.277344 L 107.570312 140.179688 C 107.28125 139.988281 107.183594 139.601562 107.378906 139.308594 C 108.246094 137.859375 109.214844 136.3125 110.179688 134.960938 C 110.375 134.667969 110.761719 134.574219 111.050781 134.765625 C 111.339844 134.960938 111.4375 135.347656 111.242188 135.636719 C 110.277344 137.085938 109.3125 138.535156 108.441406 139.988281 Z M 263.371094 134.476562 L 262.886719 134.1875 C 261.921875 132.832031 260.855469 131.382812 259.792969 130.027344 C 259.601562 129.738281 259.601562 129.351562 259.890625 129.15625 C 260.179688 128.964844 260.566406 128.964844 260.761719 129.253906 C 261.824219 130.609375 262.886719 131.960938 263.949219 133.414062 C 264.144531 133.703125 264.046875 134.089844 263.757812 134.28125 Z M 112.210938 133.800781 L 111.824219 133.703125 C 111.535156 133.507812 111.4375 133.121094 111.726562 132.832031 C 112.789062 131.382812 113.851562 130.027344 114.917969 128.675781 C 115.109375 128.382812 115.59375 128.382812 115.785156 128.578125 C 116.074219 128.769531 116.074219 129.253906 115.882812 129.449219 C 114.820312 130.800781 113.757812 132.15625 112.789062 133.507812 Z M 258.539062 128.289062 L 258.054688 128.09375 C 256.992188 126.742188 255.832031 125.484375 254.574219 124.226562 C 254.285156 123.9375 254.382812 123.550781 254.574219 123.257812 C 254.863281 122.96875 255.25 123.066406 255.542969 123.257812 C 256.699219 124.515625 257.859375 125.871094 259.019531 127.128906 C 259.214844 127.417969 259.214844 127.804688 258.925781 127.996094 Z M 117.042969 127.707031 L 116.65625 127.515625 C 116.367188 127.320312 116.367188 126.835938 116.558594 126.644531 C 117.71875 125.289062 118.878906 124.03125 120.039062 122.777344 C 120.328125 122.484375 120.714844 122.484375 121.003906 122.777344 C 121.296875 123.066406 121.296875 123.453125 121.003906 123.742188 C 119.84375 125 118.6875 126.257812 117.527344 127.515625 Z M 253.316406 122.582031 L 252.835938 122.390625 C 251.578125 121.132812 250.320312 119.972656 249.066406 118.8125 C 248.777344 118.617188 248.777344 118.136719 248.96875 117.84375 C 249.164062 117.554688 249.644531 117.554688 249.9375 117.75 C 251.191406 118.910156 252.546875 120.070312 253.703125 121.324219 C 253.996094 121.617188 253.996094 122.003906 253.703125 122.292969 Z M 122.359375 122.003906 L 121.875 121.808594 C 121.585938 121.519531 121.585938 121.132812 121.875 120.84375 C 123.132812 119.683594 124.386719 118.425781 125.742188 117.265625 C 126.03125 117.070312 126.417969 117.070312 126.609375 117.363281 C 126.804688 117.652344 126.804688 118.039062 126.515625 118.230469 C 125.257812 119.390625 124 120.550781 122.746094 121.710938 Z M 247.617188 117.265625 L 247.230469 117.070312 C 245.972656 116.007812 244.621094 114.847656 243.171875 113.878906 C 242.878906 113.6875 242.785156 113.300781 243.074219 113.011719 C 243.265625 112.71875 243.652344 112.625 243.941406 112.914062 C 245.296875 113.976562 246.746094 115.039062 248.003906 116.199219 C 248.292969 116.394531 248.292969 116.878906 248.097656 117.070312 Z M 128.15625 116.78125 L 127.675781 116.585938 C 127.480469 116.296875 127.480469 115.910156 127.769531 115.71875 C 129.125 114.558594 130.476562 113.492188 131.828125 112.527344 C 132.121094 112.332031 132.507812 112.332031 132.699219 112.625 C 132.894531 112.914062 132.894531 113.300781 132.601562 113.492188 C 131.25 114.460938 129.898438 115.523438 128.542969 116.683594 Z M 241.429688 112.527344 L 241.042969 112.429688 C 239.691406 111.464844 238.242188 110.496094 236.792969 109.53125 C 236.5 109.335938 236.40625 108.949219 236.597656 108.660156 C 236.792969 108.367188 237.179688 108.273438 237.46875 108.464844 C 238.917969 109.433594 240.367188 110.398438 241.816406 111.367188 C 242.105469 111.558594 242.203125 111.945312 242.011719 112.238281 Z M 134.246094 112.042969 L 133.667969 111.753906 C 133.472656 111.464844 133.570312 111.078125 133.859375 110.882812 C 135.308594 109.917969 136.757812 108.949219 138.207031 107.980469 C 138.5 107.789062 138.886719 107.886719 139.078125 108.175781 C 139.273438 108.464844 139.175781 108.851562 138.886719 109.046875 C 137.4375 109.917969 135.984375 110.882812 134.632812 111.851562 Z M 234.859375 108.273438 L 234.566406 108.175781 C 233.023438 107.304688 231.570312 106.433594 230.027344 105.660156 C 229.734375 105.46875 229.542969 105.082031 229.734375 104.792969 C 229.929688 104.5 230.316406 104.308594 230.605469 104.5 C 232.152344 105.273438 233.699219 106.144531 235.148438 107.015625 C 235.4375 107.207031 235.535156 107.59375 235.339844 107.886719 Z M 140.816406 107.886719 L 140.238281 107.5 C 140.046875 107.207031 140.140625 106.820312 140.433594 106.628906 C 141.976562 105.757812 143.523438 104.886719 144.972656 104.113281 C 145.265625 103.921875 145.652344 104.113281 145.84375 104.40625 C 146.039062 104.695312 145.84375 105.082031 145.554688 105.273438 C 144.105469 106.046875 142.558594 106.820312 141.011719 107.691406 Z M 227.996094 104.597656 L 227.707031 104.5 C 226.160156 103.726562 224.613281 103.050781 222.96875 102.375 C 222.679688 102.277344 222.488281 101.890625 222.582031 101.503906 C 222.679688 101.214844 223.066406 101.019531 223.453125 101.117188 C 225.097656 101.792969 226.644531 102.472656 228.1875 103.246094 C 228.480469 103.4375 228.671875 103.824219 228.480469 104.113281 C 228.480469 104.40625 228.285156 104.597656 227.996094 104.597656 Z M 147.679688 104.210938 C 147.390625 104.210938 147.195312 104.113281 147.101562 103.824219 C 146.90625 103.535156 147.101562 103.148438 147.390625 102.953125 C 148.9375 102.179688 150.578125 101.503906 152.125 100.828125 C 152.417969 100.730469 152.804688 100.828125 152.996094 101.214844 C 153.09375 101.503906 152.996094 101.890625 152.609375 102.085938 C 151.0625 102.761719 149.421875 103.4375 147.875 104.113281 Z M 220.84375 101.503906 L 220.652344 101.503906 C 219.007812 100.921875 217.460938 100.34375 215.816406 99.761719 C 215.433594 99.667969 215.335938 99.28125 215.433594 98.988281 C 215.527344 98.601562 215.914062 98.507812 216.203125 98.601562 C 217.847656 99.085938 219.492188 99.761719 221.132812 100.34375 C 221.425781 100.441406 221.617188 100.828125 221.519531 101.214844 C 221.425781 101.308594 221.132812 101.503906 220.84375 101.503906 Z M 154.832031 101.214844 C 154.542969 101.214844 154.347656 101.019531 154.253906 100.828125 C 154.15625 100.535156 154.253906 100.148438 154.640625 99.957031 C 156.28125 99.375 157.925781 98.796875 159.566406 98.214844 C 159.953125 98.121094 160.246094 98.3125 160.339844 98.601562 C 160.4375 98.988281 160.246094 99.28125 159.953125 99.375 C 158.3125 99.859375 156.667969 100.441406 155.121094 101.019531 Z M 213.5 98.988281 L 213.304688 98.988281 C 211.664062 98.507812 209.921875 98.121094 208.28125 97.734375 C 207.894531 97.636719 207.699219 97.347656 207.796875 96.960938 C 207.894531 96.574219 208.28125 96.378906 208.570312 96.476562 C 210.210938 96.863281 211.953125 97.347656 213.59375 97.828125 C 213.980469 97.925781 214.175781 98.3125 214.078125 98.601562 C 214.078125 98.796875 213.789062 98.988281 213.5 98.988281 Z M 162.273438 98.796875 C 161.984375 98.796875 161.695312 98.601562 161.695312 98.3125 C 161.597656 97.925781 161.792969 97.636719 162.179688 97.539062 C 163.820312 97.054688 165.5625 96.667969 167.203125 96.28125 C 167.589844 96.1875 167.878906 96.378906 167.976562 96.765625 C 168.074219 97.152344 167.878906 97.441406 167.492188 97.539062 C 165.851562 97.925781 164.109375 98.3125 162.46875 98.796875 Z M 205.960938 97.152344 L 205.863281 97.152344 C 204.125 96.765625 202.480469 96.476562 200.742188 96.28125 C 200.355469 96.1875 200.160156 95.894531 200.160156 95.507812 C 200.257812 95.121094 200.546875 94.929688 200.933594 94.929688 C 202.675781 95.121094 204.316406 95.507812 206.058594 95.800781 C 206.441406 95.894531 206.636719 96.1875 206.539062 96.574219 C 206.539062 96.863281 206.25 97.152344 205.960938 97.152344 Z M 169.8125 96.960938 C 169.523438 96.960938 169.234375 96.765625 169.136719 96.476562 C 169.039062 96.089844 169.328125 95.800781 169.621094 95.703125 C 171.359375 95.414062 173.003906 95.121094 174.742188 94.832031 C 175.128906 94.832031 175.417969 95.027344 175.515625 95.414062 C 175.515625 95.800781 175.320312 96.089844 174.9375 96.1875 C 173.195312 96.378906 171.554688 96.667969 169.8125 97.054688 Z M 198.226562 95.894531 C 196.488281 95.703125 194.75 95.507812 193.007812 95.414062 C 192.621094 95.414062 192.332031 95.121094 192.429688 94.734375 C 192.429688 94.347656 192.71875 94.058594 193.105469 94.15625 C 194.84375 94.253906 196.585938 94.445312 198.324219 94.640625 C 198.710938 94.640625 198.90625 95.027344 198.90625 95.316406 C 198.90625 95.703125 198.613281 95.894531 198.226562 95.894531 Z M 177.546875 95.800781 C 177.253906 95.800781 176.964844 95.507812 176.867188 95.21875 C 176.867188 94.832031 177.0625 94.542969 177.449219 94.542969 C 179.1875 94.347656 180.929688 94.253906 182.667969 94.15625 C 183.054688 94.15625 183.34375 94.445312 183.34375 94.734375 C 183.34375 95.121094 183.054688 95.414062 182.765625 95.414062 C 181.023438 95.507812 179.285156 95.605469 177.546875 95.800781 Z M 190.496094 95.316406 C 188.757812 95.21875 187.015625 95.21875 185.277344 95.316406 C 184.890625 95.316406 184.601562 95.027344 184.601562 94.640625 C 184.601562 94.253906 184.890625 93.960938 185.277344 93.960938 C 187.015625 93.960938 188.757812 93.960938 190.496094 93.960938 C 190.882812 93.960938 191.171875 94.253906 191.171875 94.640625 C 191.171875 95.027344 190.882812 95.316406 190.496094 95.316406 Z M 190.496094 95.316406 " fill-opacity="1" fill-rule="nonzero"/></svg>